<svg class="animated" id="freepik_stories-social-life" xmlns="http://www.w3.org/2000/svg" viewBox="0 0 500 500" version="1.1" xmlns:xlink="http://www.w3.org/1999/xlink" xmlns:svgjs="http://svgjs.com/svgjs"><style>svg#freepik_stories-social-life:not(.animated) .animable {opacity: 0;}svg#freepik_stories-social-life.animated #freepik--background-complete--inject-94 {animation: 1s 1 forwards cubic-bezier(.36,-0.01,.5,1.38) lightSpeedLeft;animation-delay: 0s;}svg#freepik_stories-social-life.animated #freepik--Floor--inject-94 {animation: 1s 1 forwards cubic-bezier(.36,-0.01,.5,1.38) lightSpeedLeft;animation-delay: 0s;}svg#freepik_stories-social-life.animated #freepik--Plant--inject-94 {animation: 1s 1 forwards cubic-bezier(.36,-0.01,.5,1.38) lightSpeedRight;animation-delay: 0s;}svg#freepik_stories-social-life.animated #freepik--character-4--inject-94 {animation: 1s 1 forwards cubic-bezier(.36,-0.01,.5,1.38) fadeIn;animation-delay: 0s;}svg#freepik_stories-social-life.animated #freepik--character-3--inject-94 {animation: 1s 1 forwards cubic-bezier(.36,-0.01,.5,1.38) slideUp;animation-delay: 0s;}svg#freepik_stories-social-life.animated #freepik--character-2--inject-94 {animation: 1s 1 forwards cubic-bezier(.36,-0.01,.5,1.38) zoomIn;animation-delay: 0s;}svg#freepik_stories-social-life.animated #freepik--character-1--inject-94 {animation: 1s 1 forwards cubic-bezier(.36,-0.01,.5,1.38) lightSpeedLeft;animation-delay: 0s;}            @keyframes lightSpeedLeft {              from {                transform: translate3d(-50%, 0, 0) skewX(20deg);                opacity: 0;              }              60% {                transform: skewX(-10deg);                opacity: 1;              }              80% {                transform: skewX(2deg);              }              to {                opacity: 1;                transform: translate3d(0, 0, 0);              }            }                    @keyframes lightSpeedRight {              from {                transform: translate3d(50%, 0, 0) skewX(-20deg);                opacity: 0;              }              60% {                transform: skewX(10deg);                opacity: 1;              }              80% {                transform: skewX(-2deg);              }              to {                opacity: 1;                transform: translate3d(0, 0, 0);              }            }                    @keyframes fadeIn {                0% {                    opacity: 0;                }                100% {                    opacity: 1;                }            }                    @keyframes slideUp {                0% {                    opacity: 0;                    transform: translateY(30px);                }                100% {                    opacity: 1;                    transform: inherit;                }            }                    @keyframes zoomIn {                0% {                    opacity: 0;                    transform: scale(0.5);                }                100% {                    opacity: 1;                    transform: scale(1);                }            }        </style><g id="freepik--background-complete--inject-94" class="animable" style="transform-origin: 249.885px 177.805px;"><path d="M72.59,295.92l-13.12.28-6.66.11c-2.23,0-4.47,0-6.7.05h-.44v-.45l-.06-11.19v-.5h.5l13.24.06c4.42,0,8.83.11,13.24.16h.28v.27c0,1.9-.09,3.78-.13,5.65Zm0,0-.14-5.66c0-1.86-.11-3.7-.13-5.53l.27.27c-4.41.05-8.82.16-13.24.16l-13.24.07.5-.5,0,11.19-.45-.45c2.18,0,4.36,0,6.55.06l6.58.11Z" style="fill: rgb(235, 235, 235); transform-origin: 59.24px 290.29px;" id="elwzc363rbbgo" class="animable"></path><path d="M57.82,310l-13.12.28-6.66.11c-2.23,0-4.47,0-6.7.05H30.9V310l-.06-11.19v-.51h.5l13.24.06c4.41,0,8.83.11,13.24.16h.28v.27c0,1.9-.08,3.78-.13,5.65Zm0,0-.14-5.66c0-1.86-.11-3.7-.13-5.53l.27.27c-4.41.05-8.83.16-13.24.16l-13.24.07.5-.5L31.79,310l-.45-.45c2.18,0,4.36,0,6.55.06l6.58.11Z" style="fill: rgb(235, 235, 235); transform-origin: 44.47px 304.37px;" id="el7qys6ufoz75" class="animable"></path><path d="M293.17,199.57l-13.12.28-6.66.11c-2.23,0-4.47,0-6.7.06h-.44v-.45l-.06-11.19v-.5h.5l13.24.06c4.42,0,8.83.12,13.24.17h.28v.27c0,1.9-.09,3.79-.14,5.66Zm0,0-.14-5.65c0-1.87-.11-3.71-.13-5.54l.27.27c-4.41.06-8.82.16-13.24.17l-13.24.06.5-.5-.05,11.19-.45-.44c2.18,0,4.36,0,6.55.05l6.58.11Z" style="fill: rgb(235, 235, 235); transform-origin: 279.82px 193.95px;" id="elc0uvtrrkp8s" class="animable"></path><path d="M278.4,213.68l-13.12.28-6.66.11c-2.23.05-4.47,0-6.7.06h-.44v-.45l-.06-11.19V202h.5l13.24.06c4.41,0,8.83.12,13.24.17h.28v.27c0,1.9-.08,3.79-.13,5.65Zm0,0-.14-5.65c-.05-1.87-.11-3.71-.13-5.54l.27.27c-4.41.06-8.83.16-13.24.17l-13.24.06.5-.5,0,11.19-.45-.44c2.18,0,4.36,0,6.55,0l6.58.11Z" style="fill: rgb(235, 235, 235); transform-origin: 265.05px 208.065px;" id="elt7vuaz4aq1o" class="animable"></path><path d="M263.69,199.57l-13.13.28-6.66.11c-2.22,0-4.46,0-6.69.06h-.45v-.45l0-11.19v-.5h.5l13.24.06c4.41,0,8.82.12,13.24.17H264v.27c0,1.9-.09,3.79-.13,5.66Zm0,0-.14-5.65c-.05-1.87-.12-3.71-.14-5.54l.28.27c-4.42.06-8.83.16-13.24.17l-13.24.06.5-.5-.06,11.19-.44-.44c2.18,0,4.35,0,6.54.05l6.58.11Z" style="fill: rgb(235, 235, 235); transform-origin: 250.38px 193.95px;" id="elg8xy0dd84pe" class="animable"></path><path d="M468.66,310l-13.13.28-6.66.11c-2.22,0-4.46,0-6.69.05h-.45V310l-.05-11.19v-.51h.5l13.24.06c4.41,0,8.83.11,13.24.16h.27v.27c0,1.9-.08,3.78-.13,5.65Zm0,0-.14-5.66c0-1.86-.12-3.7-.13-5.53l.27.27c-4.41.05-8.83.16-13.24.16l-13.24.07.5-.5L442.62,310l-.44-.45c2.18,0,4.36,0,6.54.06l6.58.11Z" style="fill: rgb(235, 235, 235); transform-origin: 455.305px 304.37px;" id="el2me6pqtrbhi" class="animable"></path><path d="M453.89,56.92l-13.13.27-6.66.12c-2.22,0-4.46,0-6.69,0H427v-.44l0-11.19v-.51h.51l13.24.06c4.41,0,8.82.11,13.24.16h.27v.27c0,1.89-.09,3.78-.13,5.65Zm0,0-.14-5.66c-.05-1.86-.12-3.7-.14-5.53l.28.27c-4.42,0-8.83.16-13.24.16l-13.24.07.5-.5-.06,11.19-.44-.45c2.18,0,4.35,0,6.54.05l6.58.12Z" style="fill: rgb(235, 235, 235); transform-origin: 440.63px 51.24px;" id="ellasf8aplo" class="animable"></path><path d="M468.66,71l-13.13.27-6.66.12c-2.22,0-4.46,0-6.69,0h-.45V71l-.05-11.19v-.51h.5l13.24.06c4.41,0,8.83.11,13.24.16h.27v.27c0,1.89-.08,3.78-.13,5.65Zm0,0-.14-5.66c0-1.86-.12-3.7-.13-5.53l.27.27c-4.41,0-8.83.16-13.24.16l-13.24.06.5-.49L442.62,71l-.44-.45c2.18,0,4.36,0,6.54,0l6.58.12Z" style="fill: rgb(235, 235, 235); transform-origin: 455.305px 65.345px;" id="elw1rpksvba3s" class="animable"></path><path d="M72.59,56.92l-13.12.27-6.66.12c-2.23,0-4.47,0-6.7,0h-.44v-.44l-.06-11.19v-.51h.5l13.24.06c4.42,0,8.83.11,13.24.16h.28v.27c0,1.89-.09,3.78-.13,5.65Zm0,0-.14-5.66c0-1.86-.11-3.7-.13-5.53l.27.27c-4.41,0-8.82.16-13.24.16l-13.24.07.5-.5,0,11.19-.45-.45c2.18,0,4.36,0,6.55.05l6.58.12Z" style="fill: rgb(235, 235, 235); transform-origin: 59.24px 51.24px;" id="el0a71e8uo3efu" class="animable"></path><path d="M60.73,266.36a24.09,24.09,0,0,0,7.11,2.88,24.53,24.53,0,1,0-7.11-2.88Z" style="fill: rgb(235, 235, 235); transform-origin: 73.3811px 245.344px;" id="elhhf4rj5nthh" class="animable"></path><path d="M65.89,242.63a7.47,7.47,0,1,0,7.38-7.56A7.46,7.46,0,0,0,65.89,242.63Z" style="fill: rgb(255, 255, 255); transform-origin: 73.3594px 242.539px;" id="el08ur1iwgu56r" class="animable"></path><path d="M60.7,263.28l0,3.08a24.09,24.09,0,0,0,7.11,2.88,24.42,24.42,0,0,0,18.7-3.19l0-3.07a12.9,12.9,0,0,0-25.8.3Z" style="fill: rgb(255, 255, 255); transform-origin: 73.605px 260.056px;" id="elyfc7vungsh9" class="animable"></path><path d="M393,109.61a19,19,0,1,0-8.71-20.56A19,19,0,0,0,393,109.61Z" style="fill: rgb(235, 235, 235); transform-origin: 402.801px 93.333px;" id="elx07y2wql3qq" class="animable"></path><path d="M397,91.23a5.78,5.78,0,1,0,5.71-5.84A5.78,5.78,0,0,0,397,91.23Z" style="fill: rgb(255, 255, 255); transform-origin: 402.78px 91.1696px;" id="eloi6bu7gz6z8" class="animable"></path><path d="M393,107.22l0,2.39a19,19,0,0,0,20-.25l0-2.37a10,10,0,1,0-20,.23Z" style="fill: rgb(255, 255, 255); transform-origin: 403px 104.718px;" id="elgkeg7r24pug" class="animable"></path><path d="M152.39,71a11.13,11.13,0,0,0,3.35,1.36A11.58,11.58,0,1,0,152.39,71Z" style="fill: rgb(235, 235, 235); transform-origin: 158.367px 61.082px;" id="elz5y5we7yjsd" class="animable"></path><path d="M154.82,59.83a3.52,3.52,0,1,0,3.47-3.56A3.51,3.51,0,0,0,154.82,59.83Z" style="fill: rgb(255, 255, 255); transform-origin: 158.34px 59.7896px;" id="elqyd0ucs21p" class="animable"></path><path d="M152.37,69.57l0,1.45a11.13,11.13,0,0,0,3.35,1.36,11.49,11.49,0,0,0,8.81-1.51l0-1.44a6.08,6.08,0,0,0-12.16.14Z" style="fill: rgb(255, 255, 255); transform-origin: 158.45px 68.0508px;" id="elhzrswuvk1f9" class="animable"></path></g><g id="freepik--Floor--inject-94" class="animable" style="transform-origin: 250.005px 453.33px;"><polygon points="39.2 453.33 91.9 453.08 144.6 453 250 452.83 355.4 453 408.1 453.08 460.81 453.33 408.1 453.57 355.4 453.66 250 453.83 144.6 453.66 91.9 453.57 39.2 453.33" style="fill: rgb(38, 50, 56); transform-origin: 250.005px 453.33px;" id="elfgfm39hgdqo" class="animable"></polygon></g><g id="freepik--Plant--inject-94" class="animable" style="transform-origin: 400.745px 369.915px;"><path d="M391.41,383s-19.16-4.35-29.66-14-16.36-27-16.36-27a163.74,163.74,0,0,1,21.48,5.64c1.71,1.83,5,5.61,6.5,9.19a44.47,44.47,0,0,0,.05-6.57,29.22,29.22,0,0,1,6.82,4.14C389,362,391.41,383,391.41,383Z" style="fill: rgb(255, 199, 39); transform-origin: 368.4px 362.5px;" id="elctgtlhrgxzb" class="animable"></path><path d="M357.35,350.43c-2.61-1.81-5.27-3.55-7.87-5.37a.15.15,0,0,1,.16-.26c4.93,2.95,9.8,6.1,14.51,9.4,1.64,1.15,3.25,2.35,4.84,3.57l-.33-.57c-.57-1-1.18-1.9-1.79-2.85a39.68,39.68,0,0,0-4.06-5.42c-.06-.07,0-.16.09-.09,1.49,1.72,3,3.42,4.34,5.24.65.87,1.25,1.77,1.82,2.69.3.47.59,1,.86,1.44.1.17.2.33.29.5,2.48,1.94,4.89,4,7.19,6.12q2.13,2,4.12,4.11c-.74-2.32-1.39-4.67-2.25-6.95,0-.08.1-.11.13,0,.83,2.39,1.74,4.8,2.39,7.26q2.2,2.37,4.19,4.94c0-.11,0-.21-.07-.32-.22-.9-.44-1.8-.68-2.7-.47-1.73-1-3.45-1.56-5.15a30.1,30.1,0,0,0-5.15-9.72c0-.06,0-.15.1-.09A37.37,37.37,0,0,1,386,371.5c.21.82.4,1.64.59,2.46.09.43.21.87.28,1.32.58.78,1.15,1.57,1.69,2.38a83,83,0,0,1,8.11,15.9,182.17,182.17,0,0,1,6.14,19.14c0,.12-.16.17-.2,0-3.74-11.2-7.57-22.57-14-32.59A73.87,73.87,0,0,0,384.2,374a36,36,0,0,1-9.31-1.86,41.07,41.07,0,0,1-9.34-4.51,55.42,55.42,0,0,1-4.78-3.61.06.06,0,1,1,.08-.1,37.93,37.93,0,0,0,8.78,5.31,47.71,47.71,0,0,0,9.66,3.24c1.42.31,2.85.54,4.29.73a81.47,81.47,0,0,0-5.65-6.25c-.65-.65-1.32-1.27-2-1.89a45.18,45.18,0,0,0-7.08-4.06c-3.14-1.51-6.23-3.12-9.34-4.7-1.75-.89-3.49-1.8-5.26-2.67-.07,0,0-.14.07-.11,3.15,1.52,6.35,2.94,9.52,4.4,3,1.37,6,2.74,8.89,4.36l.36.21c-2.59-2.26-5.28-4.41-8-6.48C362.54,354.12,360,352.24,357.35,350.43Z" style="fill: rgb(38, 50, 56); transform-origin: 376.109px 378.794px;" id="elhy0lrausbo8" class="animable"></path><path d="M358.44,360.31c1.56.68,3.14,1.28,4.69,2s3.08,1.61,4.59,2.51c.07,0,0,.13-.06.09-1.53-.73-3.08-1.41-4.59-2.17s-3.08-1.61-4.67-2.31C358.33,360.4,358.36,360.27,358.44,360.31Z" style="fill: rgb(38, 50, 56); transform-origin: 363.055px 362.61px;" id="el12ysl38hyndi" class="animable"></path><path d="M453.63,286.5a27.29,27.29,0,0,0-5.72,15.9c-.06,1.72.21,4.12.41,6.93-7.15,3.81-12.5,10.68-12.5,10.68,4.05-2.43,9.62-3.42,12.63-3a38.77,38.77,0,0,1-.73,5.72c-1.33-.07-3.89.11-8.13,1.61a18.26,18.26,0,0,1,7.33,1.46c-3.42,10.86-13.57,22-41.59,26.76a58.8,58.8,0,0,1,5-39.44C418.69,296.58,453.63,286.5,453.63,286.5Z" style="fill: rgb(255, 199, 39); transform-origin: 428.779px 319.53px;" id="elhtlqutdzy0k" class="animable"></path><path d="M395.63,399q.72-7,1.81-13.88a278.48,278.48,0,0,1,5.65-27.43,110.48,110.48,0,0,1,4.05-12.5A18.83,18.83,0,0,1,407,343c0-.9,0-1.79,0-2.69,0-1.8.11-3.59.26-5.38A64.52,64.52,0,0,1,409,324.38c.51-2,1.11-4,1.69-5.93,0-.08.15-.05.13,0A78.13,78.13,0,0,0,408.75,329a100.24,100.24,0,0,0-.94,10.52c0,1-.05,1.93-.06,2.89,0,.41,0,.82,0,1.24a89.67,89.67,0,0,1,4.72-9.78,118.71,118.71,0,0,1,9.59-14.35,6.33,6.33,0,0,1,.23-1.56c.13-.63.27-1.26.41-1.88.29-1.28.61-2.55,1-3.82.69-2.54,1.61-5,2.41-7.5,0-.08.14,0,.12,0-.74,2.48-1.23,5.05-1.8,7.58-.28,1.25-.55,2.5-.83,3.75-.14.63-.27,1.25-.4,1.88a.59.59,0,0,0,0,.14c1.13-1.43,2.28-2.84,3.47-4.23,5.35-6.27,11.22-12.06,17.12-17.81.73-.71,1.47-1.4,2.21-2.09a.06.06,0,0,1,.09.09c-5.65,5.89-11.2,11.84-16.47,18.08q-1.87,2.22-3.69,4.5l1.91-1.27c1.63-1.07,3.29-2.1,5-3.06s3.41-1.88,5.16-2.75,3.72-1.61,5.45-2.62c.07,0,.14.08.06.11a41.21,41.21,0,0,0-5.11,2.84c-1.71,1-3.41,2-5.08,3.09s-3.31,2.07-4.94,3.14c-1.37.88-2.71,1.85-4.12,2.67a131,131,0,0,0-9,13.07,94.77,94.77,0,0,0-4.64,8.8l1-.44,2.57-1.14c1.65-.73,3.3-1.44,5-2.16,3.14-1.37,6.33-2.62,9.41-4.12a42.78,42.78,0,0,0,5-2.8c.07,0,.13.07.06.12-5.75,4-12.19,6.75-18.55,9.56l-2.76,1.22c-.76.34-1.51.71-2.29,1a96.75,96.75,0,0,0-4.74,13,262.29,262.29,0,0,0-6.1,27.12c-1.61,9.15-2.7,18.37-3.54,27.62-.1,1.16-.21,2.31-.34,3.46a.37.37,0,0,1-.73,0C394.65,408.4,395.14,403.69,395.63,399Z" style="fill: rgb(38, 50, 56); transform-origin: 420.359px 353.69px;" id="el645c27f4fxu" class="animable"></path><path d="M412.68,321.62c.51-2.85,1.27-5.63,2-8.42a.06.06,0,1,1,.12,0c-.71,2.73-1.21,5.52-1.73,8.3s-1,5.68-1.39,8.53c0,.05-.08.05-.07,0A73,73,0,0,1,412.68,321.62Z" style="fill: rgb(38, 50, 56); transform-origin: 413.205px 321.604px;" id="elo9jfo7y9eeh" class="animable"></path><path d="M424.75,329.35a52.09,52.09,0,0,1,6.1-3.43c1-.53,2.06-1,3.09-1.53s2.18-.95,3.23-1.48c.08,0,.14.08.07.11-1,.52-2,1.14-3,1.69l-3.11,1.7c-2.05,1.1-4.06,2.32-6.21,3.21A.16.16,0,0,1,424.75,329.35Z" style="fill: rgb(38, 50, 56); transform-origin: 430.978px 326.274px;" id="elmnmxgx800o" class="animable"></path><g id="el8bq6yo2xkjw"><path d="M391.06,349.85s-17.73-4.24-25.86-16.13c-7.78-11.35-10.29-30.71-10.49-32.41.32,1.56,4,18.48,16.05,26.36C380,333.71,388.92,338.67,391.06,349.85Z" style="fill: rgb(38, 50, 56); opacity: 0.1; transform-origin: 372.885px 325.58px;" class="animable"></path></g><path d="M374.7,319.22A22.58,22.58,0,0,1,381.23,330s0,.06-.05,0a26.43,26.43,0,0,0-6.57-10.68C374.55,319.26,374.64,319.16,374.7,319.22Z" style="fill: rgb(38, 50, 56); transform-origin: 377.91px 324.614px;" id="el5zjhefe8wgk" class="animable"></path><path d="M391.06,349.85s-17.73-4.24-25.86-16.13c-7.78-11.35-10.29-30.71-10.49-32.41a1.13,1.13,0,0,0,0-.12s8.5,12.08,17.44,15.16S393.62,330.09,391.06,349.85Z" style="fill: rgb(255, 199, 39); transform-origin: 373.054px 325.52px;" id="elkwm986oytgm" class="animable"></path><path d="M357.83,307.85a72.37,72.37,0,0,0,5.48,9.37,37.82,37.82,0,0,0,7.29,7.5c2.41,1.92,5,3.65,7.39,5.52a.35.35,0,0,0-.05-.08c-.46-.68-.95-1.34-1.45-2-1-1.29-2.13-2.52-3.24-3.73-2.2-2.39-4.45-4.73-6.43-7.32a27.33,27.33,0,0,1-2.84-4.58c0-.07.09-.11.12,0,2.88,6,8.62,9.82,12.72,14.88.58.72,1.13,1.47,1.64,2.24a9.39,9.39,0,0,1,1,1.81,36.76,36.76,0,0,1,6,6.11,24.39,24.39,0,0,0-.71-3.44,17.37,17.37,0,0,0-1.88-4.49c0-.07.07-.15.11-.07a20.79,20.79,0,0,1,2.07,4.46,15.66,15.66,0,0,1,.64,3.82h0a34.79,34.79,0,0,1,2.4,3.73c-.08-.38-.15-.76-.22-1.14-.35-1.76-.74-3.52-1.2-5.27a31.56,31.56,0,0,0-4.27-10c0-.07.07-.14.11-.07a37.89,37.89,0,0,1,4.73,9.77c.56,1.73,1,3.5,1.41,5.29.2.87.37,1.75.54,2.62.09.46.18.92.26,1.39a64.19,64.19,0,0,1,4.09,12,178.89,178.89,0,0,1,3.78,22.41,187.4,187.4,0,0,1,1.22,23.8c0,1-.08,2-.13,3,0,.26-.4.29-.41,0-.18-3.93-.28-7.87-.51-11.8s-.58-7.85-1-11.77a208.7,208.7,0,0,0-3.69-22.92c-1.44-6.48-3.3-13-6.84-18.68a35.29,35.29,0,0,0-6.4-7.6c-2.48-2.23-5.2-4.19-7.82-6.25a43.43,43.43,0,0,1-7.18-6.9,57.7,57.7,0,0,1-5.64-9.15c-.41-.81-.84-1.6-1.27-2.41C357.69,307.85,357.8,307.78,357.83,307.85Z" style="fill: rgb(38, 50, 56); transform-origin: 378.102px 356.703px;" id="el88s84d7azys" class="animable"></path><path d="M360.89,310.45a61.31,61.31,0,0,0,3.95,6.91c0,.05,0,.1-.08.05a48.52,48.52,0,0,1-4-6.92C360.73,310.42,360.86,310.38,360.89,310.45Z" style="fill: rgb(38, 50, 56); transform-origin: 362.798px 313.922px;" id="elg51fw8cuukq" class="animable"></path><path d="M456.1,342s.28,25.19-14.78,32.46-23.13,1.21-33.37,3.65l0,0c.4-.6,7.7-11.09,19.32-14C439.24,361.14,452.48,352.5,456.1,342Z" style="fill: rgb(255, 199, 39); transform-origin: 432.025px 360.092px;" id="elsq6yeuyiwi" class="animable"></path><g id="elxw01rsexku"><path d="M456.1,342s.28,25.19-14.78,32.46-23.13,1.21-33.37,3.65l0,0a57.42,57.42,0,0,1,17.12-5.05C434.59,371.91,452.73,365.72,456.1,342Z" style="opacity: 0.1; transform-origin: 432.025px 360.092px;" class="animable"></path></g><path d="M407,378.57a25.61,25.61,0,0,1,6-4.06l1-.42c.16-.2.32-.39.5-.58a18,18,0,0,1,1.42-1.34,20.29,20.29,0,0,1,3-2.19c2.49-1.47,5.23-2.49,7.78-3.86.07,0,.14.08.06.12-1.26.65-2.48,1.37-3.71,2.09s-2.41,1.36-3.57,2.11a24.94,24.94,0,0,0-3,2.24c-.27.23-.52.48-.78.74a41.08,41.08,0,0,1,5.09-1.36c2.76-.55,5.55-.95,8.3-1.53a39.33,39.33,0,0,0,4-1.08c1.25-1,2.49-2,3.68-3.1a30.08,30.08,0,0,0,3.89-4.32c.05-.07.16,0,.11.07a45.8,45.8,0,0,1-6.17,6.81c.65-.24,1.29-.51,1.92-.79a31.17,31.17,0,0,0,12.84-10.68c0-.07.16,0,.11.07a35.2,35.2,0,0,1-10.38,10,30.79,30.79,0,0,1-6.56,3.11,61.62,61.62,0,0,1-8.16,1.93,57.82,57.82,0,0,0-8,1.89,24,24,0,0,0-6.69,3.53,31.21,31.21,0,0,0-9,11.19c-2.85,5.72-4.21,12.11-5,18.41,0,.27-.45.27-.43,0C396,396.94,398.8,385.92,407,378.57Z" style="fill: rgb(38, 50, 56); transform-origin: 422.364px 382.592px;" id="elhbxyhozn0tn" class="animable"></path><path d="M424.44,370.35a8.61,8.61,0,0,1,3.1-2.8,11.54,11.54,0,0,0,3.68-3.05c0-.07.16,0,.11.07a12.54,12.54,0,0,1-3.25,2.91,11.31,11.31,0,0,0-3.55,2.93A.05.05,0,0,1,424.44,370.35Z" style="fill: rgb(38, 50, 56); transform-origin: 427.885px 367.452px;" id="ely3d7klkq2qn" class="animable"></path><polygon points="416.45 397.16 415.76 411.01 413.66 453.33 382.07 453.33 379.97 411.01 379.28 397.16 416.45 397.16" style="fill: rgb(55, 71, 79); transform-origin: 397.865px 425.245px;" id="eltdh1lxbpgpc" class="animable"></polygon><polygon points="416.45 397.16 415.76 411.01 379.97 411.01 379.28 397.16 416.45 397.16" style="fill: rgb(38, 50, 56); transform-origin: 397.865px 404.085px;" id="elrtk36pnz168" class="animable"></polygon><rect x="377.07" y="391.38" width="41.6" height="13.21" style="fill: rgb(55, 71, 79); transform-origin: 397.87px 397.985px;" id="eljrry56b36yc" class="animable"></rect></g><g id="freepik--character-4--inject-94" class="animable" style="transform-origin: 371.492px 181.659px;"><rect x="325.88" y="125.3" width="101.26" height="102.35" style="fill: rgb(235, 235, 235); transform-origin: 376.51px 176.475px;" id="elslkc8uu73u" class="animable"></rect><polygon points="325.88 227.65 325.88 211.23 307.22 227.65 325.88 227.65" style="fill: rgb(235, 235, 235); transform-origin: 316.55px 219.44px;" id="elmkopb22dzxr" class="animable"></polygon><path d="M358.55,169c-15.39,15.61-34.76,48.43-31.15,55.08,4,7.41,25.46-14.46,25.38-15.74-.07-1,7.47-20.9,13.19-35.4S362.36,165.09,358.55,169Z" style="fill: rgb(235, 148, 129); transform-origin: 347.37px 194.819px;" id="eluw51du7gv3" class="animable"></path><path d="M352.92,208.32c.65-2.14,10.91-28.43,13.85-36.74s.21-10.88-8.17-3.27-26.73,33.05-30.92,46.55c-4,13,2.66,13,11.49,7C346.41,217,352.92,208.32,352.92,208.32Z" style="fill: rgb(255, 199, 39); transform-origin: 347.202px 194.755px;" id="el265exbggt1u" class="animable"></path><g id="elx8l14ifoxw"><path d="M361,170.66a6,6,0,0,1,.52,1.69,6.35,6.35,0,0,1-.93-1.5,6,6,0,0,1-.52-1.68A6.5,6.5,0,0,1,361,170.66Zm-27.25,33.17a6.32,6.32,0,0,0,.52,1.68,5.85,5.85,0,0,0,.94,1.49,6.32,6.32,0,0,0-.52-1.68A6.45,6.45,0,0,0,333.74,203.83ZM342.81,190a7,7,0,0,0,1.46,3.17,6,6,0,0,0-.52-1.68A5.85,5.85,0,0,0,342.81,190Zm8.87-1a6.39,6.39,0,0,0,1.69-.52,6.21,6.21,0,0,0,1.49-.94,6.32,6.32,0,0,0-1.68.52A6.08,6.08,0,0,0,351.68,189Zm-8.49,14a6,6,0,0,0,1.68-.52,6.09,6.09,0,0,0,1.49-.93,6,6,0,0,0-1.68.52A6.09,6.09,0,0,0,343.19,202.94Zm6.9-23.92a6.7,6.7,0,0,0,3.18-1.46,7.09,7.09,0,0,0-3.18,1.46Zm7.16,16a6.08,6.08,0,0,0-.82,1.55,6.17,6.17,0,0,0-.4,1.72,5.72,5.72,0,0,0,.83-1.56A6.55,6.55,0,0,0,357.25,195Zm-17.78,16.64a6.77,6.77,0,0,0-1.21,3.28,6.31,6.31,0,0,0,.82-1.56A6.16,6.16,0,0,0,339.47,211.66Zm9.86-1.48a5.66,5.66,0,0,0,1.45.78l.31-.37h0A6.25,6.25,0,0,0,349.33,210.18ZM331.7,220.9a6.31,6.31,0,0,0-1.56-.82,6.16,6.16,0,0,0-1.72-.39,6.31,6.31,0,0,0,1.56.82A6.16,6.16,0,0,0,331.7,220.9Zm28.17-39.31a5.89,5.89,0,0,0,1.57.82,6.64,6.64,0,0,0,1.18.33l.09-.23a6.69,6.69,0,0,0-1.12-.52A6.17,6.17,0,0,0,359.87,181.59Z" style="opacity: 0.2; transform-origin: 345.565px 195.035px;" class="animable"></path></g><path d="M354.76,227.63h58.52s-9.3-45.9-31.75-65.77c-2.77-2.45-9-1.89-13.11.13-1.46.73-6.69,8-8.18,15S354.59,227.42,354.76,227.63Z" style="fill: rgb(255, 199, 39); transform-origin: 384.017px 193.934px;" id="el5l5ll6hfml" class="animable"></path><path d="M359.73,179.82c-.46,1.55-.84,3.15-1.15,4.76,0-.06,0-.12,0-.18,0-.91,0-1.83-.13-2.73,0,0-.08-.06-.08,0a14.06,14.06,0,0,0-.08,2.75c0,.43.05.86.09,1.3-.12.72-.23,1.44-.32,2.16-.18,1.36-.64,6.45-.68,7.46,0,.21.24.25.3,0,.28-1,1-6.27,1.24-7.62a72.28,72.28,0,0,0,.92-7.91C359.84,179.77,359.75,179.77,359.73,179.82Z" style="fill: rgb(38, 50, 56); transform-origin: 358.61px 187.647px;" id="elbw64lcoty1f" class="animable"></path><g id="elywrflkip4h"><path d="M378.8,175.34a6,6,0,0,1,.52,1.68,6.09,6.09,0,0,1-.93-1.49,6,6,0,0,1-.52-1.68A6.09,6.09,0,0,1,378.8,175.34Zm6.06,20.32a6.32,6.32,0,0,0,.52,1.68,6.08,6.08,0,0,0,.94,1.5,6.39,6.39,0,0,0-.52-1.69A6.67,6.67,0,0,0,384.86,195.66Zm19,8.34a6.39,6.39,0,0,0,.52,1.69,6,6,0,0,0,.94,1.49,6.32,6.32,0,0,0-.52-1.68A6.73,6.73,0,0,0,403.87,204Zm-14,14.94a5.94,5.94,0,0,0,.52,1.69,6.29,6.29,0,0,0,.93,1.49,6,6,0,0,0-.52-1.68A6.35,6.35,0,0,0,389.9,218.94Zm-24.4-28.87a6,6,0,0,0,.52,1.69,6.5,6.5,0,0,0,.93,1.49,6,6,0,0,0-.52-1.68A6.35,6.35,0,0,0,365.5,190.07Zm-7.69,15.86a6.32,6.32,0,0,0,.52,1.68,6.08,6.08,0,0,0,.94,1.5,6.39,6.39,0,0,0-.52-1.69A6.54,6.54,0,0,0,357.81,205.93Zm18.6,11.43a6.32,6.32,0,0,0,.52,1.68,5.85,5.85,0,0,0,.94,1.49,6.32,6.32,0,0,0-.52-1.68A5.85,5.85,0,0,0,376.41,217.36Zm17.83-30.92a6.39,6.39,0,0,0,.52,1.69,6,6,0,0,0,.94,1.49,6.32,6.32,0,0,0-.52-1.68A6.08,6.08,0,0,0,394.24,186.44Zm-22.68-2.78a6.32,6.32,0,0,0,1.68-.52,6.08,6.08,0,0,0,1.5-.94,6.39,6.39,0,0,0-1.69.52A6,6,0,0,0,371.56,183.66Zm-3.69,18.83a6.32,6.32,0,0,0,1.68-.52,6.08,6.08,0,0,0,1.5-.94,6.27,6.27,0,0,0-1.69.52A6,6,0,0,0,367.87,202.49Zm34.41,19.95a6,6,0,0,0,1.68-.52,6.08,6.08,0,0,0,1.5-.94,6.4,6.4,0,0,0-1.69.53A6.5,6.5,0,0,0,402.28,222.44ZM367.66,226l.93-.06.36-.16a6.29,6.29,0,0,0,1.49-.93,6.32,6.32,0,0,0-1.68.52A7.09,7.09,0,0,0,367.66,226Zm21.47-18.75a6.72,6.72,0,0,0,3.17-1.46,6.32,6.32,0,0,0-1.68.52A5.85,5.85,0,0,0,389.13,207.2ZM371.56,167a6.32,6.32,0,0,0,1.68-.52,6.39,6.39,0,0,0,1.5-.94,6.39,6.39,0,0,0-1.69.52A6,6,0,0,0,371.56,167Zm-1.9,6.08a6,6,0,0,0-.82,1.56,6.17,6.17,0,0,0-.4,1.72,6.31,6.31,0,0,0,.82-1.56A6.17,6.17,0,0,0,369.66,173.07Zm-9.3,43.56a6,6,0,0,0-.82,1.56,6.17,6.17,0,0,0-.39,1.71,6,6,0,0,0,.82-1.56A6.09,6.09,0,0,0,360.36,216.63ZM385.47,184a6,6,0,0,0-.82,1.56,6.18,6.18,0,0,0-.4,1.71,6.08,6.08,0,0,0,.82-1.55A6.17,6.17,0,0,0,385.47,184Zm-7.23,19.17a6.31,6.31,0,0,0-.82,1.56,6.17,6.17,0,0,0-.4,1.72,6.7,6.7,0,0,0,.83-1.56A6.53,6.53,0,0,0,378.24,203.19Zm33,24.44h.15a1.94,1.94,0,0,0,0-.24Zm-16.41,0h.48a1,1,0,0,1,.06-.16,6.53,6.53,0,0,0,.39-1.72,6.31,6.31,0,0,0-.82,1.56C394.87,227.42,394.83,227.53,394.8,227.63Zm3.87-15.55a6.7,6.7,0,0,0-.83,1.56,6.16,6.16,0,0,0-.39,1.72,6.92,6.92,0,0,0,1.22-3.28ZM384.49,167a6.31,6.31,0,0,0-.82,1.56,6.16,6.16,0,0,0-.39,1.72,6.77,6.77,0,0,0,1.21-3.28ZM370.16,213.3a6.31,6.31,0,0,0-1.56-.82,6.17,6.17,0,0,0-1.72-.4,6,6,0,0,0,1.56.82A6.17,6.17,0,0,0,370.16,213.3Zm15.32,14.09a6.31,6.31,0,0,0-1.56-.82,5.82,5.82,0,0,0-1.72-.39,6,6,0,0,0,1.56.82A6.16,6.16,0,0,0,385.48,227.39Zm23.66-13.25a4.69,4.69,0,0,0,.79.49l-.12-.4C409.59,214.19,409.37,214.16,409.14,214.14Zm-11-15.74a6,6,0,0,0-1.56-.82,6.17,6.17,0,0,0-1.72-.4,6.31,6.31,0,0,0,1.56.82A6.17,6.17,0,0,0,398.17,198.4Zm-12.28,15.51a6.66,6.66,0,0,0-3.28-1.22,6.31,6.31,0,0,0,1.56.82A6.17,6.17,0,0,0,385.89,213.91Zm-7.3-22.25a6,6,0,0,0-1.56-.82,5.69,5.69,0,0,0-1.71-.39,6,6,0,0,0,1.56.82A6.55,6.55,0,0,0,378.59,191.66Zm-15.44-8.85a6,6,0,0,0-1.56-.82,6.18,6.18,0,0,0-1.71-.4,6.08,6.08,0,0,0,1.55.82A6.17,6.17,0,0,0,363.15,182.81Zm27.61-5.18a6,6,0,0,0-1.56-.82,6.1,6.1,0,0,0-1.71-.4,5.72,5.72,0,0,0,1.56.83A6.55,6.55,0,0,0,390.76,177.63Z" style="opacity: 0.2; transform-origin: 384.582px 196.585px;" class="animable"></path></g><path d="M432.21,143.82c.13-2.81-.44-15.74-1.4-19.3s-4.48-13.62-7.29-13.16-2,3.49-2,3.49-2.15-4-4.93-3.29-1.39,5.38-1.39,5.38-2.52-4-5.24-3-.54,5.38-.54,5.38-2.13-3.73-4.06-2c-2.31,2,2.39,8.47,3.16,12.49.18.91,2.22,18.72,2.22,18.72Z" style="fill: rgb(235, 148, 129); transform-origin: 418.478px 129.937px;" id="ele61lj0uhhtj" class="animable"></path><path d="M409.23,118.89c3.45,4.74,4.14,7.4,4.52,13.15,0,.12.18.13.18,0,.14-5.66-.24-9.13-4.48-13.34C409.24,118.51,409.07,118.67,409.23,118.89Z" style="fill: rgb(38, 50, 56); transform-origin: 411.56px 125.375px;" id="eljdiqlofmhfi" class="animable"></path><path d="M414.91,116.57c3.15,5.23,3.92,8.12,4.77,14.11,0,.09.15.07.15,0-.34-5.95-.8-9.41-4.64-14.22C415,116.24,414.76,116.33,414.91,116.57Z" style="fill: rgb(38, 50, 56); transform-origin: 417.346px 123.537px;" id="el9uhgall15lp" class="animable"></path><path d="M421.55,115.15c2.68,5.28,3.67,8.41,3.74,14.34a.11.11,0,0,0,.22,0c.51-6-.69-10-3.79-14.41C421.5,114.78,421.38,114.82,421.55,115.15Z" style="fill: rgb(38, 50, 56); transform-origin: 423.547px 122.238px;" id="el7ak8zplskm9" class="animable"></path><path d="M410.91,152.14s-5.34-5-7.2-7.76-5-15.44-2.34-16.28c3.49-1.09,6.78,5.88,7.94,9.51,0,0,8.08-2.53,11.53,2S410.91,152.14,410.91,152.14Z" style="fill: rgb(235, 148, 129); transform-origin: 410.876px 140.063px;" id="eli7o3014pevg" class="animable"></path><path d="M402.42,128.11c3.91,1.31,5.13,6.17,6.52,9.6a.34.34,0,0,0,.54.15c3.46-.83,8.58-1,11.39,1.49a.09.09,0,0,0,.12-.12c-2.65-3.08-7.69-3.33-11.42-2.17-1.38-3.54-2.81-8.36-7.13-9C402.41,128.07,402.4,128.11,402.42,128.11Z" style="fill: rgb(38, 50, 56); transform-origin: 411.704px 133.709px;" id="elhpvfk52351s" class="animable"></path><path d="M378.3,168.71c3.52,6.08,23.83,24.82,41.53,28.07,2.4.44,11.55-1.49,13.46-7.56,3.41-10.81.68-33.11-1.06-46.54-.34-2.62-24.69,2.77-24.06,6.77.7,4.44,3.31,20.73,2.91,20.92-1.46.67-17-6.05-27.23-8.25C376.6,160.56,375.6,164,378.3,168.71Z" style="fill: rgb(235, 148, 129); transform-origin: 405.924px 169.414px;" id="elwwbsdqy6wkc" class="animable"></path><path d="M435.67,149.32l-27.75,6s2.53,14.17,2,14.09-20-7.18-27.46-7.92-7.51,2.55-3.7,8.75,28.74,26.94,41,26.93c6.25,0,12.07-4,13.21-5.92C436.54,185.32,435.67,149.32,435.67,149.32Z" style="fill: rgb(69, 90, 100); transform-origin: 406.014px 173.245px;" id="eld6cwc9e9g8" class="animable"></path><path d="M435.67,149.32l-27.75,6s2.53,14.17,2,14.09-20-7.18-27.46-7.92-7.51,2.55-3.7,8.75,28.74,26.94,41,26.93c6.25,0,12.07-4,13.21-5.92C436.54,185.32,435.67,149.32,435.67,149.32Z" style="fill: rgb(255, 199, 39); transform-origin: 406.014px 173.245px;" id="el9v0d48lf75i" class="animable"></path><g id="elukaga00kxx"><path d="M395,167.58a6.39,6.39,0,0,0,.52,1.69,6.21,6.21,0,0,0,.94,1.49,6.5,6.5,0,0,0-.52-1.69A6.91,6.91,0,0,0,395,167.58Zm22,24.76a6,6,0,0,0,.52,1.69,6.29,6.29,0,0,0,.93,1.49,6.3,6.3,0,0,0-.51-1.68A6.73,6.73,0,0,0,417,192.34Zm16.34-17a6.39,6.39,0,0,0,.52,1.69,6,6,0,0,0,.94,1.49,6,6,0,0,0-.53-1.68A6.35,6.35,0,0,0,433.36,175.36Zm-24.16.07a6.78,6.78,0,0,0,.52,1.69,6.33,6.33,0,0,0,.94,1.49,6,6,0,0,0-.52-1.68A6.08,6.08,0,0,0,409.2,175.43Zm12.16,7a6.32,6.32,0,0,0,.52,1.68,6.08,6.08,0,0,0,.94,1.5,6.06,6.06,0,0,0-.53-1.69A6.29,6.29,0,0,0,421.36,182.43Zm-1.07-17.06a6.37,6.37,0,0,0,.51,1.69,6.45,6.45,0,0,0,.94,1.49,6,6,0,0,0-.52-1.68A6.35,6.35,0,0,0,420.29,165.37Zm12.34-12.67a6.5,6.5,0,0,0,.52,1.69,6,6,0,0,0,.94,1.48,6.72,6.72,0,0,0-1.46-3.17Zm-49.35,17.54a6.77,6.77,0,0,0,1.21-3.28,6.66,6.66,0,0,0-.82,1.56A6.16,6.16,0,0,0,383.28,170.24Zm16.43,11.34a6.92,6.92,0,0,0,1.22-3.28,6.66,6.66,0,0,0-1.22,3.28Zm12.34-12.78a6.92,6.92,0,0,0,1.22-3.28,6.35,6.35,0,0,0-.83,1.56A6.62,6.62,0,0,0,412.05,168.8Zm1.6,18.49a6.08,6.08,0,0,0,.82-1.55,6.16,6.16,0,0,0,.39-1.72,6.29,6.29,0,0,0-.82,1.56A6.09,6.09,0,0,0,413.65,187.29Zm15.82-2a6.35,6.35,0,0,0,.83-1.56,6.53,6.53,0,0,0,.39-1.72,6.92,6.92,0,0,0-1.22,3.28Zm-5-26.14a6.7,6.7,0,0,0,.83-1.56,6.6,6.6,0,0,0,.39-1.73,7,7,0,0,0-1.22,3.29ZM426.35,174a6.31,6.31,0,0,0,.82-1.56,6.17,6.17,0,0,0,.4-1.72,6.66,6.66,0,0,0-1.22,3.28Zm-38.86,2.42a6.12,6.12,0,0,0,1.55.83,6.71,6.71,0,0,0,1.72.39,6,6,0,0,0-1.56-.82A6.1,6.1,0,0,0,387.49,176.41Zm29.35-.67a6.08,6.08,0,0,0,1.55.82,6.24,6.24,0,0,0,1.72.39,6,6,0,0,0-1.56-.82A6.09,6.09,0,0,0,416.84,175.74Zm-2.77-17.44a5.72,5.72,0,0,0,1.56.83,6.55,6.55,0,0,0,1.71.39,6,6,0,0,0-1.56-.82A6.1,6.1,0,0,0,414.07,158.3Zm15.75,5.48a6.29,6.29,0,0,0,1.56.82,6.09,6.09,0,0,0,1.71.39,6.08,6.08,0,0,0-1.55-.82A6.32,6.32,0,0,0,429.82,163.78Zm-26.19,23.64a6.12,6.12,0,0,0,1.55.83,6.62,6.62,0,0,0,1.72.39,6,6,0,0,0-1.56-.82A6.1,6.1,0,0,0,403.63,187.42ZM424.71,192a6.66,6.66,0,0,0,1.56.82,6.16,6.16,0,0,0,1.72.39,6.14,6.14,0,0,0-1.56-.82A5.82,5.82,0,0,0,424.71,192ZM402,168.56a5.69,5.69,0,0,0,1.56.82,6.18,6.18,0,0,0,1.71.4,6.33,6.33,0,0,0-1.56-.83A6.45,6.45,0,0,0,402,168.56Z" style="opacity: 0.2; transform-origin: 409.03px 174.1px;" class="animable"></path></g><path d="M409.74,169.55a42.84,42.84,0,0,0,1.1,6.27c.47,2.1,1.12,4.13,1.74,6.18a0,0,0,1,0,.07,0c-.53-2.06-.92-4.16-1.37-6.24s-.77-4.18-1.3-6.24C409.94,169.36,409.73,169.41,409.74,169.55Z" style="fill: rgb(38, 50, 56); transform-origin: 411.195px 175.71px;" id="el4wv3h3j8x2l" class="animable"></path><path d="M409.56,160.56c3.21-.8,6.46-1.43,9.72-2s6.51-1.25,9.78-1.79c1.85-.3,3.7-.61,5.56-.85.05,0,.07.07,0,.08-3.21.8-6.46,1.44-9.7,2.08s-6.52,1.25-9.79,1.82q-2.76.49-5.55.86C409.51,160.73,409.46,160.58,409.56,160.56Z" style="fill: rgb(38, 50, 56); transform-origin: 422.084px 158.34px;" id="elfoshvydp517" class="animable"></path><path d="M400.4,188.9c-.52-.45-1.08-.84-1.62-1.26l-1.56-1.22L394,184c-2.14-1.66-4.24-3.36-6.35-5-1.21-1-2.4-1.93-3.59-2.91-.05,0-.12,0-.07.07,1.46,1.37,2.93,2.73,4.44,4l-.57-.28c-.58-.29-1.15-.6-1.72-.91,0,0-.08,0,0,.07a15.8,15.8,0,0,0,1.66,1c.28.15.57.29.86.42l.42.19h0l1,.87c2.1,1.7,4.24,3.35,6.43,4.93.6.44,1.21.87,1.83,1.28s1.29.9,2,1.28C400.39,189,400.45,188.94,400.4,188.9Z" style="fill: rgb(38, 50, 56); transform-origin: 392.196px 182.55px;" id="elmygxnt6m48" class="animable"></path><path d="M369.26,173.89c3.47-.18,7.57-6.77,8.58-11.43a70.08,70.08,0,0,0-2.6-6.54c-.83-2.1-1.71-4.45-2.36-6.65L360,156.7a36.68,36.68,0,0,1,3.83,8.07,4.57,4.57,0,0,1,.17.93,1,1,0,0,0,0,.15C364.29,167.65,365.91,174.07,369.26,173.89Z" style="fill: rgb(235, 148, 129); transform-origin: 368.92px 161.582px;" id="elfjkc9bjgav" class="animable"></path><path d="M372,149.79c.46,3,1.38,13.22-6.46,15.72a7.73,7.73,0,0,1-1.45.34.68.68,0,0,0,0-.15,4.79,4.79,0,0,0-.17-.94,36.94,36.94,0,0,0-3.82-8.06Z" style="fill: rgb(38, 50, 56); transform-origin: 366.196px 157.82px;" id="el096v6z6dj848" class="animable"></path><path d="M368.69,133.17c3,4.41,4.84,19.3,2.35,23.53-3.61,6.12-11.7,9.13-17.46,4.3-5.58-4.69-7.62-24.14-4.64-28.21C353.34,126.8,364.24,126.65,368.69,133.17Z" style="fill: rgb(235, 148, 129); transform-origin: 359.888px 145.841px;" id="eluh295g1mqig" class="animable"></path><path d="M357.38,146.8s.09,0,.09.08c.09,1,.37,2.14,1.32,2.36,0,0,0,.06,0,.06C357.67,149.28,357.31,147.77,357.38,146.8Z" style="fill: rgb(38, 50, 56); transform-origin: 358.081px 148.05px;" id="el3594b2ijhw8" class="animable"></path><path d="M358.14,145.64c1.6-.33,2.14,2.89.66,3.19S356.8,145.91,358.14,145.64Z" style="fill: rgb(38, 50, 56); transform-origin: 358.518px 147.233px;" id="eldsanduncm2c" class="animable"></path><path d="M351.92,147.61s-.07.06-.06.1c.2,1,.26,2.16-.59,2.64,0,0,0,.07,0,.05C352.36,150.07,352.27,148.51,351.92,147.61Z" style="fill: rgb(38, 50, 56); transform-origin: 351.713px 149.007px;" id="el4ne3cich528" class="animable"></path><path d="M350.86,146.72c-1.63.14-1.21,3.38.29,3.24S352.22,146.59,350.86,146.72Z" style="fill: rgb(38, 50, 56); transform-origin: 350.955px 148.34px;" id="ely4889wt85gd" class="animable"></path><path d="M359.17,144a9.58,9.58,0,0,1-1.32-.23,2.14,2.14,0,0,1-1.31-.49.69.69,0,0,1,0-.84,1.7,1.7,0,0,1,1.67-.46,2.54,2.54,0,0,1,1.61.84A.73.73,0,0,1,359.17,144Z" style="fill: rgb(38, 50, 56); transform-origin: 358.188px 142.962px;" id="el4bbplqd91gz" class="animable"></path><path d="M349.34,145.3a10.26,10.26,0,0,0,1.22-.54,2.2,2.2,0,0,0,1.15-.8.69.69,0,0,0-.18-.82,1.74,1.74,0,0,0-1.74,0,2.52,2.52,0,0,0-1.35,1.2A.73.73,0,0,0,349.34,145.3Z" style="fill: rgb(38, 50, 56); transform-origin: 350.083px 144.12px;" id="elo5vqzjjcu8" class="animable"></path><path d="M360.34,155.72c-.2.28-.39.64-.75.73a2.61,2.61,0,0,1-1.11-.07,0,0,0,0,0,0,.06,1.36,1.36,0,0,0,1.35.32,1.07,1.07,0,0,0,.64-1A.05.05,0,0,0,360.34,155.72Z" style="fill: rgb(38, 50, 56); transform-origin: 359.476px 156.247px;" id="elfryvkj26xt" class="animable"></path><path d="M358.79,152.91a3.45,3.45,0,0,1-2,1.89,4.22,4.22,0,0,1-1.22.26.93.93,0,0,1-.23,0h-.23a.26.26,0,0,1-.24-.19h0a.33.33,0,0,1,0-.1h0v-.09c-.15-.76-.27-1.94-.27-1.94-.26.19-1.58,1.07-1.62.66a51,51,0,0,1-.4-10.49c0-.11.17-.11.18,0,.47,3.21.38,6.48.8,9.71a6.16,6.16,0,0,1,1.52-.76c.11,0,.19,2.29.29,2.62a.1.1,0,0,0,0,0,4.75,4.75,0,0,0,3.33-1.68C358.74,152.77,358.83,152.82,358.79,152.91Z" style="fill: rgb(38, 50, 56); transform-origin: 355.636px 148.947px;" id="el55tjma0xiai" class="animable"></path><path d="M356,154.72a4.18,4.18,0,0,0,1.87.9,1.94,1.94,0,0,0,1.1-.17c.75-.38.61-1.1.34-1.69a4.49,4.49,0,0,0-.56-.88A5.27,5.27,0,0,1,356,154.72Z" style="fill: rgb(38, 50, 56); transform-origin: 357.763px 154.259px;" id="elv1kyb2yv8zd" class="animable"></path><path d="M357.86,155.62a1.94,1.94,0,0,0,1.1-.17c.75-.38.61-1.1.34-1.69A1.88,1.88,0,0,0,357.86,155.62Z" style="fill: rgb(255, 156, 189); transform-origin: 358.688px 154.699px;" id="ell1ez0sshrf7" class="animable"></path><path d="M372.12,145.24s1.49-9.64-.78-13.92c-1-1.93-4.33-2.16-4.33-2.16a4.91,4.91,0,0,0-3.33-4c-3.3-1.27-8.87,1.61-8.87,1.61s-6-3.86-10.38.46,1.51,8.9,1.51,8.9-.81,3.56,4.83,3.76c5.48.2,14.07-5.75,14.07-5.75a35.52,35.52,0,0,0,4.18,9.72A3.24,3.24,0,0,0,372.12,145.24Z" style="fill: rgb(38, 50, 56); transform-origin: 357.705px 135.052px;" id="ellfk1yxjomw" class="animable"></path><path d="M353.93,127.24a10,10,0,0,1,3.44-2.21,10.79,10.79,0,0,1,3.57-.86,6,6,0,0,1,5.64,2.57,4.2,4.2,0,0,1,.47,3.23s-.09,0-.07,0c.6-2-1-4.11-2.8-4.86a9.11,9.11,0,0,0-6.44.24,17.7,17.7,0,0,0-3.73,2A.06.06,0,0,1,353.93,127.24Z" style="fill: rgb(38, 50, 56); transform-origin: 360.544px 127.05px;" id="elbndg31itr3g" class="animable"></path><path d="M341.7,131.36a4.91,4.91,0,0,1,1.95-4.18,8.33,8.33,0,0,1,5.08-1.89,10.48,10.48,0,0,1,5.35,1.36s0,.08,0,.06a9.26,9.26,0,0,0-9.43.32,5.09,5.09,0,0,0-2.44,3.71,5,5,0,0,0,1.74,3.89,9.51,9.51,0,0,0,4.81,2s0,.06,0,.06a9.64,9.64,0,0,1-4.58-1.5A5.46,5.46,0,0,1,341.7,131.36Z" style="fill: rgb(38, 50, 56); transform-origin: 347.887px 130.989px;" id="eljyyqduwr31j" class="animable"></path><path d="M369.27,145.59s1.87-5.51,4.28-5,1.93,7.88-.25,9.5a2.58,2.58,0,0,1-3.71-.37Z" style="fill: rgb(235, 148, 129); transform-origin: 372.214px 145.633px;" id="el42unt449ukb" class="animable"></path><path d="M373.36,142.72s.06,0,0,.06c-1.51,1.19-1.95,3-2.1,4.87a1.43,1.43,0,0,1,1.94-1,.05.05,0,0,1,0,.1,1.63,1.63,0,0,0-1.53,1,8,8,0,0,0-.4,1.6c0,.17-.34.17-.33,0v0C370.27,147.17,371.08,143.62,373.36,142.72Z" style="fill: rgb(38, 50, 56); transform-origin: 372.05px 146.099px;" id="el43fjm6opna" class="animable"></path><path d="M359.51,151.49a4.45,4.45,0,0,1-4.5-4.41h0a4.49,4.49,0,1,1,4.5,4.41Zm-3.91-4.41a3.86,3.86,0,1,0,3.82-3.9,3.82,3.82,0,0,0-.95.13A3.88,3.88,0,0,0,355.6,147.08Z" style="fill: rgb(255, 199, 39); transform-origin: 359.499px 147px;" id="elm1h7kl1c4ja" class="animable"></path><path d="M350.19,152.8c-1.81.26-3.57-1.51-3.92-3.94a5.36,5.36,0,0,1,.49-3.21,2.78,2.78,0,0,1,4.71-.68,5.27,5.27,0,0,1,1.37,2.95c.33,2.3-.72,4.39-2.36,4.82A1.5,1.5,0,0,1,350.19,152.8Zm-2.9-6.88a4.77,4.77,0,0,0-.43,2.86c.31,2.11,1.76,3.65,3.25,3.43s2.44-2.1,2.14-4.2a4.74,4.74,0,0,0-1.21-2.62,2.37,2.37,0,0,0-2-.82l-.22.05A2.43,2.43,0,0,0,347.29,145.92Z" style="fill: rgb(255, 199, 39); transform-origin: 349.553px 148.389px;" id="eluc4uo6hxcj" class="animable"></path><path d="M355.23,147.57l.31-.5c-.75-.47-2.4-1-3.31.3l.49.35C353.53,146.54,355.16,147.53,355.23,147.57Z" style="fill: rgb(255, 199, 39); transform-origin: 353.885px 147.137px;" id="elokw8gfcfxi" class="animable"></path><path d="M375,145.89l.49-.35c-.16-.22-1.62-2.21-3-2.23s-9.06,1.85-9.39,1.93l.14.58c2.23-.54,8.26-1.93,9.24-1.92S374.65,145.34,375,145.89Z" style="fill: rgb(255, 199, 39); transform-origin: 369.295px 144.6px;" id="el25ovge5ewdr" class="animable"></path><path d="M327.4,224c3.47,5,12.9,5.9,36.42,10.51,3.26.64,13.94-21.13,10.5-22-4.34-1.08-21.39-4.34-22.67-4.42C340.88,207.44,325.05,220.67,327.4,224Z" style="fill: rgb(235, 148, 129); transform-origin: 351.08px 221.295px;" id="el827gx9csmac" class="animable"></path><path d="M369.61,211.48s10,1.51,15,3.92a35.66,35.66,0,0,1,12.84,11.2c3.59,5.08,8.76,19.85,4.77,22.08-3.61,2-8.14-13.34-8.14-13.34s7.2,14.9,2.4,16.53-9-16.49-9-16.49,7.05,15.47,1.84,16.37c-3.94.68-8.71-15.52-8.71-15.52s6,13.34,2,14.21c-4.45,1-9.78-13.71-9.78-13.71-10.6.5-15.85-3.6-19.24-7C352.64,229,369.61,211.48,369.61,211.48Z" style="fill: rgb(235, 148, 129); transform-origin: 378.608px 231.727px;" id="eliqrduuk0r1" class="animable"></path><path d="M391.88,230c.91,1.72,1.84,3.45,2.6,5.25s1.44,3.61,2,5.47a33.41,33.41,0,0,1,1.58,7.44c-.75-4.46-3.35-10.93-4.1-12.72s-1.42-3.62-2.17-5.42C391.8,230,391.86,230,391.88,230Z" style="fill: rgb(38, 50, 56); transform-origin: 394.925px 239.08px;" id="elxqn85af8m7" class="animable"></path><path d="M385.35,232.63c1.07,2.24,2.21,4.43,3.18,6.73s1.67,4.53,2.47,6.87c.06.19-.05.16-.12,0-.9-2.31-1.9-4.37-2.83-6.67s-1.75-4.64-2.75-6.89A0,0,0,1,1,385.35,232.63Z" style="fill: rgb(38, 50, 56); transform-origin: 388.159px 239.496px;" id="el93p5n0u22n5" class="animable"></path><path d="M379.35,233.85a55.46,55.46,0,0,1,4.06,10.67c0,.18-.09.13-.16-.06-1.28-3.57-2.26-6.38-4-10.55C379.2,233.85,379.31,233.78,379.35,233.85Z" style="fill: rgb(38, 50, 56); transform-origin: 381.324px 239.226px;" id="elkw9p25zeg2" class="animable"></path><path d="M371.69,211.48l-20.61,23s-20.84-4.78-23.91-10.13c-2-3.52,13.67-17.77,25.51-16.11Z" style="fill: rgb(255, 199, 39); transform-origin: 349.343px 221.293px;" id="el7hnljesdplq" class="animable"></path><g id="elbm80puqy7k"><path d="M354.33,227.3a6.32,6.32,0,0,1,.52,1.68,6.21,6.21,0,0,1-.94-1.49,6.39,6.39,0,0,1-.52-1.69A6.73,6.73,0,0,1,354.33,227.3ZM338.14,223a6,6,0,0,0,.52,1.69,6.29,6.29,0,0,0,.93,1.49,6,6,0,0,0-.52-1.68A6.35,6.35,0,0,0,338.14,223Zm9.65-2.39a6,6,0,0,0,1.68-.52,6.35,6.35,0,0,0,1.5-.93,6,6,0,0,0-1.69.52A6.5,6.5,0,0,0,347.79,220.63Zm-8.32-9a6.77,6.77,0,0,0-1.21,3.28,6.31,6.31,0,0,0,.82-1.56A6.16,6.16,0,0,0,339.47,211.66Zm20.89,5a6,6,0,0,0-.82,1.56,6.17,6.17,0,0,0-.39,1.71,6,6,0,0,0,.82-1.56A6.09,6.09,0,0,0,360.36,216.63Zm9.8-3.33a6.31,6.31,0,0,0-1.56-.82,6.17,6.17,0,0,0-1.72-.4,6,6,0,0,0,1.56.82A6.17,6.17,0,0,0,370.16,213.3Zm-17.55-1.9a6.31,6.31,0,0,0-1.56-.82,6.17,6.17,0,0,0-1.72-.4,6,6,0,0,0,1.56.82A6.17,6.17,0,0,0,352.61,211.4Zm-6.5,20.18a6,6,0,0,0-1.56-.82,6.18,6.18,0,0,0-1.71-.4,6,6,0,0,0,1.56.82A6.1,6.1,0,0,0,346.11,231.58Zm-17.35-11.66a6.52,6.52,0,0,0,1.22.59,6.16,6.16,0,0,0,1.72.39,6.31,6.31,0,0,0-1.56-.82,7.32,7.32,0,0,0-1.24-.34Z" style="opacity: 0.2; transform-origin: 349.46px 220.87px;" class="animable"></path></g><path d="M338.55,211.93a20.49,20.49,0,0,1,14.15-3.75.05.05,0,0,1,0,.1c-5.17-.15-12.15,2.56-14.1,3.73C338.55,212,338.5,212,338.55,211.93Z" style="fill: rgb(38, 50, 56); transform-origin: 345.64px 210.037px;" id="elk7k8h9r2719" class="animable"></path><path d="M345.44,230.59c2.14-2.64,4.41-5.17,6.68-7.7s4.56-5,6.9-7.52c1.32-1.39,2.64-2.79,4-4.14,0,0,.1,0,.07.06-2.13,2.64-4.39,5.18-6.65,7.71s-4.55,5.06-6.86,7.55c-1.31,1.41-2.64,2.8-4,4.15C345.51,230.76,345.38,230.67,345.44,230.59Z" style="fill: rgb(38, 50, 56); transform-origin: 354.26px 220.975px;" id="elb9sio1vwwis" class="animable"></path><path d="M371.73,211.18a31.45,31.45,0,0,0-3.87-.88c-1.3-.24-2.6-.46-3.91-.67-2.6-.42-8.05-1.6-12.85-1.58-.06,0,.22.25.27.25,2.28-.12,18.65,3.13,20,3.23l-.15.27c0,.07,0,.16.11.11s.29-.26.45-.38A.2.2,0,0,0,371.73,211.18Z" style="fill: rgb(38, 50, 56); transform-origin: 361.477px 209.987px;" id="el9r5vmjmved6" class="animable"></path></g><g id="freepik--character-3--inject-94" class="animable" style="transform-origin: 247.574px 119.034px;"><rect x="207.65" y="50.82" width="101.26" height="102.35" style="fill: rgb(235, 235, 235); transform-origin: 258.28px 101.995px;" id="elh0eini1ys6s" class="animable"></rect><polygon points="207.71 153.2 224.13 153.2 207.71 171.85 207.71 153.2" style="fill: rgb(235, 235, 235); transform-origin: 215.92px 162.525px;" id="el2459y0wqvp2i" class="animable"></polygon><path d="M242.89,91.55a2.32,2.32,0,0,0,1.34,2,20.89,20.89,0,0,0,2.09,1,67.82,67.82,0,0,1-.23-7.11c0-2.74.17-5.43.42-8.14,0,0,.07,0,.07,0-.05,2.75,0,5.5,0,8.24,0,2.4.25,4.82.27,7.22.74.26,1.49.48,2.25.68-.07-.83-.14-1.67-.19-2.5-.17-2.52-.1-5-.13-7.53,0-.07.09-.07.09,0,.06,2.45.35,4.92.54,7.36q.1,1.41.24,2.82c.52.13,1,.24,1.55.35.35.07.69.14,1,.19-.09-1.65-.09-3.32-.13-4.94-.07-2.62,0-5.23,0-7.85,0-.09.14-.1.14,0,0,2.61.27,5.22.38,7.83.06,1.67.21,3.39.27,5.09A42.39,42.39,0,0,0,266.75,96a66.23,66.23,0,0,0,7.8-1.92c.62-.2,2.19-.73,3.74-1.29,0-.79-.05-1.58-.1-2.34-.11-1.74-.11-3.5-.26-5.24,0,0,.07,0,.07,0,.22,1.74.54,3.46.69,5.21.07.7.15,1.42.21,2.15.55-.19,1.08-.39,1.55-.57-.4-3.28-.41-6.63-.62-9.91a.06.06,0,0,1,.12,0c.35,3.21.91,6.45,1.09,9.69a5.8,5.8,0,0,0,1-.47c.75-.65-.67-13.61-.92-16.64-.48-5.64-.7-11.56-2.82-16.86a16.86,16.86,0,0,0-10.64-10.21c-2.39-.8-5.09-.47-7.56-.22A17.8,17.8,0,0,0,247.78,55a29.22,29.22,0,0,0-2.69,7.19,57.8,57.8,0,0,0-1.45,8.07c-.62,5.57-.64,11.21-.71,16.82C242.91,88.55,242.82,90.06,242.89,91.55Z" style="fill: rgb(38, 50, 56); transform-origin: 262.56px 71.9028px;" id="el3qj0q9aiim1" class="animable"></path><path d="M268.66,91.85c-3.88,5.87-25.76,25.32-45.71,27-6.77.57-28.44-26.44-33-37.07-3.28-7.64,13.07-13.29,17.91-12.62,6.05.84,20,24.46,22.31,24.39,6.81-.2,18-5.43,32.13-8.29C269.54,83.77,271.64,87.33,268.66,91.85Z" style="fill: rgb(201, 95, 80); transform-origin: 229.744px 93.9825px;" id="elxgffjhzy3g9" class="animable"></path><path d="M190.77,83.51c-1.53-2.62-9-17.28-9.83-21.16s-2.56-15.22.34-16.19,3.66,2.32,3.66,2.32.05-4.91,3.06-5.62,4,4.44,4,4.44.42-5,3.47-5.52,3.21,4.85,3.21,4.85.16-4.62,2.84-4c3.24.79,2,9.27,3.26,13.48.29,1,7.28,19,7.28,19Z" style="fill: rgb(201, 95, 80); transform-origin: 195.863px 62.6273px;" id="elw5lmb9r3w0a" class="animable"></path><path d="M198.68,46.17c-.92,6.24-.24,9.13,2.28,14.8,0,.11-.1.21-.16.09-3-5.32-4.35-8.82-2.42-15C198.47,45.81,198.72,45.87,198.68,46.17Z" style="fill: rgb(38, 50, 56); transform-origin: 199.221px 53.5092px;" id="el0xueomnyfnb" class="animable"></path><path d="M192.1,46.81c-.38,6.56.33,9.7,2.54,15.83,0,.09-.12.15-.15.06-2.67-5.83-4-9.36-2.72-15.86C191.83,46.54,192.12,46.51,192.1,46.81Z" style="fill: rgb(38, 50, 56); transform-origin: 192.959px 54.672px;" id="elk64thus7num" class="animable"></path><path d="M185.07,48.78c.09,6.38.72,9.86,3.62,15.54a.12.12,0,0,1-.2.12c-3.53-5.51-4.35-9.84-3.62-15.63C184.92,48.41,185.06,48.38,185.07,48.78Z" style="fill: rgb(38, 50, 56); transform-origin: 186.661px 56.4852px;" id="el10jaimclrhj" class="animable"></path><path d="M216.53,77.55s.1-7.9-.63-11.38-8.19-15.45-10.87-14c-3.45,1.89-.51,9.65,1.44,13.26,0,0-8,4.37-7.09,10.4S216.53,77.55,216.53,77.55Z" style="fill: rgb(201, 95, 80); transform-origin: 207.921px 65.5455px;" id="elvvmce5nb3c" class="animable"></path><path d="M204.25,53c-1.9,4,.95,8.58,2.57,12.22a.37.37,0,0,1-.29.53c-3.23,2-7.19,5.9-7.36,9.93a.09.09,0,0,1-.18,0c-.41-4.35,3.17-8.45,6.86-10.47-1.72-3.71-4.38-8.43-1.63-12.24C204.23,53,204.26,53,204.25,53Z" style="fill: rgb(38, 50, 56); transform-origin: 202.908px 64.3693px;" id="el9ed3iyniur" class="animable"></path><path d="M240.05,90.61l10.11,18.2s11.83-7.14,18.62-15.54-1.85-10.11-9.06-8.27S240.05,90.61,240.05,90.61Z" style="fill: rgb(69, 90, 100); transform-origin: 255.647px 96.5708px;" id="eld5vhh2shhai" class="animable"></path><path d="M268.79,93.28c-6.8,8.39-18.63,15.54-18.63,15.54l-3.08-5.54,23.58-17C271.74,87.72,271.45,90,268.79,93.28Z" style="fill: rgb(55, 71, 79); transform-origin: 259.164px 97.55px;" id="elg228nlgcbq5" class="animable"></path><path d="M253,105.84a147.78,147.78,0,0,1-8.72-15.62c0-.07.08-.12.11,0,.71,1.42,5.42,9.1,8.73,15.61C253.15,105.86,253,105.91,253,105.84Z" style="fill: rgb(38, 50, 56); transform-origin: 248.702px 98.0115px;" id="el7920m51dswk" class="animable"></path><path d="M250.08,127.34l-3.39,25.85h54.12s-7.16-48.49-18.72-63.38c-5.78-7.45-13.52-7.26-19-1.56-1.19,1.24-13.29,18.51-15.42,25.64C245.81,120.19,250.08,127.34,250.08,127.34Z" style="fill: rgb(69, 90, 100); transform-origin: 273.75px 118.638px;" id="el2rnsxwifbxy" class="animable"></path><path d="M260.06,124.88a54.91,54.91,0,0,1,7.88,1c1.29.28,2.55.61,3.82,1,.63.18,1.27.34,1.9.5a8.82,8.82,0,0,0,2,.3,0,0,0,0,1,0,.09,12.7,12.7,0,0,1-1.95,0,14.62,14.62,0,0,1-1.86-.27c-1.31-.27-2.61-.6-3.92-.88-2.63-.57-5.27-1.13-7.94-1.51C259.91,125.08,259.93,124.88,260.06,124.88Z" style="fill: rgb(38, 50, 56); transform-origin: 267.801px 126.344px;" id="el7vbpk9w8xes" class="animable"></path><path d="M253.63,127.48a57,57,0,0,1,6.53-.58c1.09,0,2.18,0,3.27.07l1.57.11c.57,0,1.14.18,1.71.22.06,0,.06.1,0,.1-.54,0-1.09,0-1.63,0l-1.63,0c-1.1,0-2.18,0-3.28,0-2.18,0-4.35,0-6.54.14C253.52,127.66,253.52,127.49,253.63,127.48Z" style="fill: rgb(38, 50, 56); transform-origin: 260.151px 127.241px;" id="eljwxnao2va4c" class="animable"></path><path d="M268.64,180.1c2.82,1.69,6.94-6.72,8.4-8.56s2.13-1.82,2.11-.48l2.74-14.27c-1.75,1.53-5.48,4.82-7.43,7C271.83,166.6,265.8,178.4,268.64,180.1Z" style="fill: rgb(201, 95, 80); transform-origin: 274.893px 168.557px;" id="elgbr23eht036" class="animable"></path><path d="M283.88,89.44C296,98.08,311.44,113.62,315,124c2.76,8-7.1,37.06-10.14,43.88-1.33,3-21.6-4.68-22.66-8s11.31-28.54,11.3-31.14-10-19.21-16.81-30.44C268.46,84.74,273.61,82.09,283.88,89.44Z" style="fill: rgb(201, 95, 80); transform-origin: 294.046px 126.997px;" id="el6jhw00n4ute" class="animable"></path><path d="M271,188.06c1.93,1.88,5.48-.73,5.48-.73s-3,4.23-.39,5.66,5.95-2.23,5.95-2.23-2.59,4,.16,5.27,6-2,6-2-.1,1.5,2.23,1.49c3.34,0,7.79-5.68,9.42-9.2s5-17.61,5.44-19.77L282.86,156l-1,.83-2.74,14.27c0,.88-2.19,6.43-3,8C274.29,182.72,268.87,186,271,188.06Z" style="fill: rgb(201, 95, 80); transform-origin: 287.901px 176.161px;" id="el0nhu66f8f0j" class="animable"></path><path d="M276.62,187.12c4.68-4,6-6.54,7.84-12.32,0-.11.21-.08.18,0-1.25,5.82-2.49,9.27-7.84,12.52C276.54,187.52,276.39,187.31,276.62,187.12Z" style="fill: rgb(38, 50, 56); transform-origin: 280.575px 181.065px;" id="el4qro0qozcxx" class="animable"></path><path d="M281.84,190.88c4.5-4.56,6-7.32,8.33-13.23,0-.09.18,0,.15,0-1.8,6-3.12,9.4-8.21,13.37C281.88,191.25,281.64,191.09,281.84,190.88Z" style="fill: rgb(38, 50, 56); transform-origin: 286.044px 184.371px;" id="elleg8xs666ic" class="animable"></path><path d="M288.27,194c4-4.74,5.81-7.69,7.34-13.72,0-.14.25-.1.22,0-.95,6.31-3.14,10-7.4,13.79C288.14,194.32,288,194.26,288.27,194Z" style="fill: rgb(38, 50, 56); transform-origin: 291.979px 187.209px;" id="elfkdia8qmzkp" class="animable"></path><path d="M283.17,115l15.94-13.39s-9.26-10.26-18.8-15.33-9.58,3.75-6.4,10.48S283.17,115,283.17,115Z" style="fill: rgb(69, 90, 100); transform-origin: 285.565px 99.8877px;" id="elydual86nrfr" class="animable"></path><path d="M295.65,99.42A145.05,145.05,0,0,1,282,111c-.06.05-.13,0-.07-.1,1.26-1,7.91-7,13.66-11.54A.06.06,0,0,1,295.65,99.42Z" style="fill: rgb(38, 50, 56); transform-origin: 288.779px 105.19px;" id="el3760937f4l6" class="animable"></path><path d="M279.84,108.15c-1.15-2.22-2.73-5.45-4-7.6a0,0,0,0,0,0,0c.52,1.27,1.11,2.53,1.72,3.77l-.14-.19c-.45-.57-.91-1.13-1.41-1.67,0,0,0,0,0,0a20.91,20.91,0,0,0,1.25,1.82c.27.37.57.72.86,1.08.33.65,1.1,2.28,1.42,2.93.56,1.09,3.32,7.26,3.42,7.19a20,20,0,0,0,1.6-1.35c.08-.08-.06-.22-.13-.14-.28.26-1,.81-1.13.91-.61-1.11-1.12-2.29-1.68-3.43S280.42,109.27,279.84,108.15Z" style="fill: rgb(38, 50, 56); transform-origin: 280.212px 108.015px;" id="elroefhx6e7lg" class="animable"></path><path d="M272.89,84.31c0,1-3,8.25-7.37,9.11-1.43.27-3.28-7.44-3.28-7.44l-.27-.53-3.73-7.53,7.88-8.3,1.16-1.13s.89,2.13,2,4.79c.05.12.1.25.16.38l.18.43c.16.39.33.8.49,1.21s.24.6.36.93l.36,1A53.47,53.47,0,0,1,272.89,84.31Z" style="fill: rgb(201, 95, 80); transform-origin: 265.565px 80.9585px;" id="el687hxhhuulh" class="animable"></path><path d="M269.24,73.28A16.88,16.88,0,0,1,262,85.45l-3.73-7.53,7.88-8.3,1.16-1.13S268.17,70.62,269.24,73.28Z" style="fill: rgb(38, 50, 56); transform-origin: 263.755px 76.97px;" id="elxb1iodtx1of" class="animable"></path><path d="M244.07,67c1.31,14.69,10.26,15.57,13.43,15.28,2.87-.26,12.63-1.51,12.85-16.26s-7-18.78-13.64-18.53S242.76,52.26,244.07,67Z" style="fill: rgb(201, 95, 80); transform-origin: 257.136px 64.9px;" id="el3ndllwkxfk" class="animable"></path><path d="M245.9,65.11a9.9,9.9,0,0,0,1-.34,1.67,1.67,0,0,0,.92-.52.54.54,0,0,0-.08-.64,1.31,1.31,0,0,0-1.31-.14,1.92,1.92,0,0,0-1.11.82A.56.56,0,0,0,245.9,65.11Z" style="fill: rgb(38, 50, 56); transform-origin: 246.571px 64.2364px;" id="elcgdur3ch2ej" class="animable"></path><path d="M255.15,63.74a8.76,8.76,0,0,1-1-.08,1.73,1.73,0,0,1-1-.28.53.53,0,0,1-.08-.64,1.31,1.31,0,0,1,1.24-.46,1.88,1.88,0,0,1,1.27.52A.55.55,0,0,1,255.15,63.74Z" style="fill: rgb(38, 50, 56); transform-origin: 254.371px 63.001px;" id="eljaxm5sdtzm" class="animable"></path><path d="M253.6,67.47s.09,0,.09.09c.07,1,.32,2.13,1.26,2.37,0,0,0,.06,0,.06C253.83,70,253.51,68.44,253.6,67.47Z" style="fill: rgb(38, 50, 56); transform-origin: 254.268px 68.73px;" id="el4hz2x96zt68" class="animable"></path><path d="M254.39,66.34c1.59-.29,2.05,2.92.57,3.19S253.05,66.58,254.39,66.34Z" style="fill: rgb(38, 50, 56); transform-origin: 254.721px 67.9338px;" id="elicxix1g7yge" class="animable"></path><path d="M255,66.42c.31.14.63.42,1,.41s.65-.4.86-.76c0,0,.05,0,.06,0,.09.61-.05,1.28-.7,1.47s-1.1-.32-1.34-.91C254.84,66.55,254.92,66.36,255,66.42Z" style="fill: rgb(38, 50, 56); transform-origin: 255.907px 66.8252px;" id="elcw3ljkbei6j" class="animable"></path><path d="M248.29,68.51s-.07.06-.06.1c.18,1,.22,2.15-.63,2.62a0,0,0,1,0,0,0C248.69,71,248.62,69.42,248.29,68.51Z" style="fill: rgb(38, 50, 56); transform-origin: 248.052px 69.87px;" id="el5rioxbpxh5k" class="animable"></path><path d="M247.25,67.61c-1.62.12-1.26,3.34.24,3.23S248.6,67.51,247.25,67.61Z" style="fill: rgb(38, 50, 56); transform-origin: 247.32px 69.2252px;" id="elsnytllnxqpq" class="animable"></path><path d="M246.6,67.89c-.24.2-.45.54-.76.59s-.65-.25-.91-.56c0,0-.05,0,0,0,.05.62.32,1.23.93,1.29s.89-.53,1-1.16C246.8,68,246.69,67.81,246.6,67.89Z" style="fill: rgb(38, 50, 56); transform-origin: 245.884px 68.5424px;" id="eln8n4srt1xpl" class="animable"></path><path d="M255.38,76c-.19.27-.37.64-.72.73a2.6,2.6,0,0,1-1.11,0,0,0,0,0,0,0,.06,1.34,1.34,0,0,0,1.35.29,1.08,1.08,0,0,0,.62-1C255.49,76,255.41,76,255.38,76Z" style="fill: rgb(38, 50, 56); transform-origin: 254.535px 76.5761px;" id="elo2pngarmahf" class="animable"></path><path d="M250.4,72.64s0,1.51.08,2.21c0,.07.19.08.43.06,0,0,0,0,0,0A3.36,3.36,0,0,0,254,73.24a.08.08,0,0,0-.12-.09A5,5,0,0,1,251,74.42c-.07-.18.11-2.59,0-2.58a6.49,6.49,0,0,0-1.54.57c-.07-3.16.37-6.3.25-9.44a.1.1,0,0,0-.19,0,51,51,0,0,0-.7,10.15C248.76,73.51,250.14,72.79,250.4,72.64Z" style="fill: rgb(38, 50, 56); transform-origin: 251.399px 68.9101px;" id="elnt8q6pab0g" class="animable"></path><path d="M251.28,74.51a3.67,3.67,0,0,0,1.53,1.06,1.7,1.7,0,0,0,1,0c.71-.23.69-.9.53-1.46a4.12,4.12,0,0,0-.38-.85A4.73,4.73,0,0,1,251.28,74.51Z" style="fill: rgb(38, 50, 56); transform-origin: 252.856px 74.4526px;" id="elekjg7qs6535" class="animable"></path><path d="M252.81,75.57a1.7,1.7,0,0,0,1,0c.71-.23.69-.9.53-1.46A1.71,1.71,0,0,0,252.81,75.57Z" style="fill: rgb(255, 154, 187); transform-origin: 253.621px 74.8776px;" id="elyd2gi4ocwe" class="animable"></path><path d="M269.63,66.3c-2.33.57-3.7-4.29-3.7-4.29s-4.8.81-7.53-5.83a10.78,10.78,0,0,0,3.08,5.35s-8.62.51-13.36-6c0,0,2,3.37,3.57,4.43a10,10,0,0,1-5.93-3s-.8,4.34-1.76,5.66c0,0-2.11-14.88,11.88-15.58,0,0,8.69-.85,12.91,5.44S269.63,66.3,269.63,66.3Z" style="fill: rgb(38, 50, 56); transform-origin: 257.399px 56.674px;" id="elrn3bmf8cng" class="animable"></path><path d="M266.43,66.38s2.53-5,4.76-4.17.79,7.79-1.51,9a2.5,2.5,0,0,1-3.5-.85Z" style="fill: rgb(201, 95, 80); transform-origin: 269.242px 66.8585px;" id="elf72nquohuce" class="animable"></path><path d="M270.73,64.19s0,0,0,.06a6.31,6.31,0,0,0-2.66,4.37,1.37,1.37,0,0,1,2-.67.05.05,0,0,1,0,.1,1.54,1.54,0,0,0-1.6.77,7.56,7.56,0,0,0-.6,1.47c-.06.16-.35.12-.31-.06v0C267.18,68,268.43,64.74,270.73,64.19Z" style="fill: rgb(38, 50, 56); transform-origin: 269.111px 67.2901px;" id="el0bzsgrh40ixe" class="animable"></path></g><g id="freepik--character-2--inject-94" class="animable" style="transform-origin: 127.297px 142.319px;"><g id="elpuh0guowxaq"><rect x="53.45" y="88.15" width="101.26" height="102.35" style="fill: rgb(235, 235, 235); transform-origin: 104.08px 139.325px; transform: rotate(180deg);" class="animable"></rect></g><polygon points="154.71 190.5 154.71 174.08 173.37 190.5 154.71 190.5" style="fill: rgb(235, 235, 235); transform-origin: 164.04px 182.29px;" id="elhblca95k7xr" class="animable"></polygon><path d="M119.57,128.29c7.71,18.48,21.84,37.32,28.44,37.83s31-17.06,34.51-22.91c1.53-2.53-13.51-15.78-16.58-15s-15.2,13.39-17,14c-1.33.46-13.76-12.38-21.93-19.9C121.78,117.53,115.5,118.55,119.57,128.29Z" style="fill: rgb(173, 99, 89); transform-origin: 150.447px 142.832px;" id="elwyxn07ml95a" class="animable"></path><path d="M180,146.18c2.31-1.94,13.33-12.69,15.44-16s7.5-13.42,5.1-15.3-4.21,1-4.21,1,1.6-4.61-1-6.28-5.26,2.81-5.26,2.81,1.3-4.86-1.4-6.34-4.63,3.48-4.63,3.48,1.39-4.39-1.35-4.67c-3.29-.35-5,8-7.55,11.55-.6.8-13.17,15.34-13.17,15.34Z" style="fill: rgb(173, 99, 89); transform-origin: 181.557px 125.525px;" id="elp5pax3pfzp" class="animable"></path><path d="M184.23,109c-1.23,6.15-2.83,8.63-7.09,13.11-.09.09,0,.23.12.15,4.57-4,7-6.83,7.27-13.22C184.54,108.77,184.29,108.74,184.23,109Z" style="fill: rgb(38, 50, 56); transform-origin: 180.817px 115.552px;" id="elwrx7nxv2c9" class="animable"></path><path d="M190.18,111.83c-1.84,6.28-3.55,9-7.67,14-.06.07.06.18.12.11,4.45-4.58,6.84-7.45,7.85-14C190.53,111.68,190.26,111.54,190.18,111.83Z" style="fill: rgb(38, 50, 56); transform-origin: 186.49px 118.815px;" id="elwmikri5ryf" class="animable"></path><path d="M196.12,116c-2.22,5.95-4,9-8.59,13.36a.12.12,0,0,0,.15.18c5.14-4,7.36-7.78,8.62-13.46C196.38,115.74,196.26,115.66,196.12,116Z" style="fill: rgb(38, 50, 56); transform-origin: 191.915px 122.667px;" id="el3ly0d2pzlce" class="animable"></path><path d="M159.22,134.49s.09-7.86.89-11.31,8.52-15.19,11.15-13.67c3.4,2,.28,9.63-1.74,13.18,0,0,7.86,4.54,6.81,10.52S159.22,134.49,159.22,134.49Z" style="fill: rgb(173, 99, 89); transform-origin: 167.823px 122.81px;" id="ellaarsv3v0nf" class="animable"></path><path d="M172,110.36c1.81,4-1.14,8.52-2.84,12.11a.37.37,0,0,0,.27.53c3.17,2.12,7,6,7.1,10.06a.09.09,0,0,0,.18,0c.51-4.32-3-8.48-6.58-10.58,1.8-3.66,4.56-8.29,1.91-12.15A0,0,0,0,0,172,110.36Z" style="fill: rgb(38, 50, 56); transform-origin: 172.94px 121.739px;" id="eljmowsnivesj" class="animable"></path><path d="M131.75,156.57,149.3,141s-12.57-13.14-21.49-19.61-14.36-5.25-8.26,9.65A232.09,232.09,0,0,0,131.75,156.57Z" style="fill: rgb(69, 90, 100); transform-origin: 133.129px 137.12px;" id="elwsrp5mlojwj" class="animable"></path><path d="M145.55,138.62q-4,3-7.77,6.13c-1.26,1-2.52,2.06-3.76,3.12s-2.47,2.28-3.74,3.37c-.09.08,0,.23.11.16,1.27-1,2.61-1.94,3.88-3s2.59-2.13,3.88-3.19q3.82-3.16,7.49-6.52C145.71,138.68,145.63,138.56,145.55,138.62Z" style="fill: rgb(38, 50, 56); transform-origin: 137.955px 145.011px;" id="elzb9h5tiwg1h" class="animable"></path><path d="M79.53,190.51h64.18c.27-2.45-9.56-54.6-21.11-71.37-1.31-1.9-12.53-3.29-16.65,1.44C84.12,145.65,79,189.91,79.53,190.51Z" style="fill: rgb(255, 199, 39); transform-origin: 111.605px 153.942px;" id="ellic3dkyw2eh" class="animable"></path><path d="M123.05,119.82H106.74a7.36,7.36,0,0,1,.63-.47h15.37Zm2.5,4.4H103a5,5,0,0,0-.34.46h23.11Zm2.23,4.86H99.58c-.1.16-.2.31-.29.47H128C127.91,129.39,127.84,129.24,127.78,129.08Zm1.92,4.86h-33l-.27.47h33.49C129.82,134.25,129.76,134.1,129.7,133.94Zm1.72,4.87H94.06l-.22.46h37.74C131.52,139.12,131.47,139,131.42,138.81Zm1.57,4.86H91.78c-.07.15-.14.31-.2.47h41.56Zm1.46,4.86H89.75c-.07.16-.13.31-.19.47h45C134.54,148.84,134.5,148.68,134.45,148.53Zm1.37,4.87H87.92c-.06.15-.11.31-.17.46h48.19Zm1.28,4.86H86.28c-.06.16-.11.32-.15.47h51.09Zm1.21,4.86H84.8c0,.16-.09.31-.13.47h53.76Zm1.15,4.87h-56c0,.16-.08.31-.11.46h56.19C139.53,168.3,139.49,168.15,139.46,168Zm1.08,4.86H82.31c0,.16-.07.32-.1.47h58.43C140.61,173.17,140.58,173,140.54,172.85Zm1,4.86H81.29a3.89,3.89,0,0,0-.09.47h60.46C141.63,178,141.6,177.87,141.56,177.71Zm.95,4.87H80.41c0,.16,0,.31-.07.46H142.6Zm.85,4.86H79.71c0,.16,0,.32,0,.47h63.77C143.41,187.76,143.39,187.61,143.36,187.44Z" style="fill: rgb(69, 90, 100); transform-origin: 111.595px 153.63px;" id="el0es7vvyxggvd" class="animable"></path><path d="M120.54,131.26c-3.65.44-9.14-5.68-11.05-10.35-.13-.32.69-3.45,1.51-7.3.49-2.34,1-5,1.25-7.37l14.74,5.4a38.86,38.86,0,0,0-2.51,9.11,6.86,6.86,0,0,0,0,1s0,.1,0,.16C124.57,123.84,124.06,130.83,120.54,131.26Z" style="fill: rgb(173, 99, 89); transform-origin: 118.233px 118.761px;" id="elejx38475qu5" class="animable"></path><path d="M124.48,121.92a2,2,0,0,1,0,.35c-9-2.47-11.54-7.26-12.9-11.6.27-1.48.51-3,.66-4.43L127,111.63a39,39,0,0,0-2.51,9.12,4.87,4.87,0,0,0,0,1Z" style="fill: rgb(38, 50, 56); transform-origin: 119.29px 114.255px;" id="el1lheif66tjv" class="animable"></path><path d="M113.12,87.27c-2.92,4.85-4,20.7-1.06,25,4.18,6.26,12.92,8.95,18.72,3.48,5.61-5.29,6.59-26,3.19-30.09C129,79.61,117.43,80.11,113.12,87.27Z" style="fill: rgb(173, 99, 89); transform-origin: 123.128px 100.091px;" id="el80fk2q7kram" class="animable"></path><path d="M125.88,100.57s-.09.05-.09.09c0,1.07-.27,2.29-1.26,2.58a0,0,0,0,0,0,.06C125.73,103.22,126,101.6,125.88,100.57Z" style="fill: rgb(38, 50, 56); transform-origin: 125.218px 101.935px;" id="el98qqva6gwj4" class="animable"></path><path d="M125,99.39c-1.7-.25-2.08,3.19-.5,3.42S126.44,99.6,125,99.39Z" style="fill: rgb(38, 50, 56); transform-origin: 124.702px 101.099px;" id="el5v1cqqsao2o" class="animable"></path><path d="M132.08,101.19s.08.06.08.11c-.15,1.06-.15,2.3.78,2.75,0,0,0,.07,0,.06C131.76,103.82,131.77,102.17,132.08,101.19Z" style="fill: rgb(38, 50, 56); transform-origin: 132.421px 102.65px;" id="elr2xvtwvejk" class="animable"></path><path d="M133.16,100.19c1.72,0,1.48,3.5-.12,3.45S131.71,100.14,133.16,100.19Z" style="fill: rgb(38, 50, 56); transform-origin: 133.15px 101.915px;" id="elzue4f6jlhxm" class="animable"></path><path d="M123.82,97.68a13.18,13.18,0,0,0,1.38-.33,2.32,2.32,0,0,0,1.35-.6.74.74,0,0,0,0-.89,1.83,1.83,0,0,0-1.8-.38,2.65,2.65,0,0,0-1.65,1A.78.78,0,0,0,123.82,97.68Z" style="fill: rgb(38, 50, 56); transform-origin: 124.837px 96.5353px;" id="elzx2820ji9xc" class="animable"></path><path d="M134.67,98.6a11.58,11.58,0,0,1-1.32-.5,2.27,2.27,0,0,1-1.26-.77.73.73,0,0,1,.14-.88,1.81,1.81,0,0,1,1.83-.15,2.7,2.7,0,0,1,1.5,1.19A.77.77,0,0,1,134.67,98.6Z" style="fill: rgb(38, 50, 56); transform-origin: 133.828px 97.3752px;" id="elxfciyad42n" class="animable"></path><path d="M123.36,110.26c.23.28.44.65.82.72a3,3,0,0,0,1.18-.14,0,0,0,0,1,0,.06,1.44,1.44,0,0,1-1.42.43,1.15,1.15,0,0,1-.73-1C123.24,110.23,123.32,110.22,123.36,110.26Z" style="fill: rgb(38, 50, 56); transform-origin: 124.285px 110.806px;" id="elx9fjpvpd9gl" class="animable"></path><path d="M124.82,107.2a3.69,3.69,0,0,0,2.25,1.87,4.29,4.29,0,0,0,1.29.2,1,1,0,0,0,.25,0h.24a.26.26,0,0,0,.24-.21h0a.41.41,0,0,0,0-.11h0v-.09c.11-.82.17-2.07.17-2.07.28.18,1.73,1,1.76.6a55.17,55.17,0,0,0-.21-11.12c0-.11-.2-.11-.2,0-.3,3.42,0,6.87-.25,10.31a6.1,6.1,0,0,0-1.66-.7c-.12,0-.06,2.42-.14,2.79v0a5,5,0,0,1-3.63-1.57C124.86,107,124.77,107.1,124.82,107.2Z" style="fill: rgb(38, 50, 56); transform-origin: 128.006px 102.733px;" id="el1l0l5f3y4sk" class="animable"></path><g id="elxnamla939zh"><path d="M110.59,97.7c1.09-.33,3.53-3.33,4.59-4.54s2.09-7.82,2.34-9.79a10.59,10.59,0,0,0-4.42,4C111.87,89.34,111,93.43,110.59,97.7Z" style="fill: rgb(38, 50, 56); opacity: 0.2; transform-origin: 114.055px 90.535px;" class="animable"></path></g><path d="M129.56,90.34a5.13,5.13,0,0,1-4.87,1.21A5.24,5.24,0,0,1,121,88a0,0,0,1,0-.08,0A5.23,5.23,0,0,0,124.57,92a5.34,5.34,0,0,0,5.08-1.52C129.7,90.38,129.62,90.29,129.56,90.34Z" style="fill: rgb(38, 50, 56); transform-origin: 125.293px 90.0696px;" id="eliz8xstrk5ap" class="animable"></path><path d="M125.68,77.11a8.11,8.11,0,0,0-7.19,3,5.74,5.74,0,0,0-1,3.68s.11,0,.11,0a6.39,6.39,0,0,1,3.61-5.37,8.2,8.2,0,0,1,7.29,0A5.17,5.17,0,0,1,131,80.87c.05.11.28.07.24-.05C130.68,78.88,128.37,77.35,125.68,77.11Z" style="fill: rgb(38, 50, 56); transform-origin: 124.36px 80.4274px;" id="elem6mjrxmn85" class="animable"></path><path d="M142.19,85.48a6.56,6.56,0,0,0-2.39-3.83c-1.7-1.33-3.77-1.4-5.84-1.42-.05,0-.06.09,0,.09a9,9,0,0,1,5,1.15,6.52,6.52,0,0,1,2.62,3.46,6.3,6.3,0,0,1-3.47,7.49,6.37,6.37,0,0,1-5.08,0c-.06,0-.12.06-.06.09a6.44,6.44,0,0,0,9.17-7Z" style="fill: rgb(38, 50, 56); transform-origin: 137.601px 86.7018px;" id="elpthdbgybkgl" class="animable"></path><path d="M111.86,90.22s-2.19-5.63.52-8.43c1.54-1.58,5.93-.84,5.93-.84a8.07,8.07,0,0,1,5.49-2.78c3.81-.42,8,2.26,8,2.26s3.75-1.6,6.83.67c4.28,3.16,2.89,10.09-2,11.8-3.43,1.2-7.5-2.19-7.5-2.19-.44,0-5.08,2.12-7.91-2.14,0,0-3,2.06-5.15.11A3.88,3.88,0,0,1,111.86,90.22Z" style="fill: rgb(38, 50, 56); transform-origin: 126.104px 85.6412px;" id="elbp80eyldaju" class="animable"></path><path d="M113.26,100.44s-2.31-5.72-4.83-5-1.57,8.45.83,10a2.74,2.74,0,0,0,3.91-.62Z" style="fill: rgb(173, 99, 89); transform-origin: 110.101px 100.688px;" id="elyduasu1fpvd" class="animable"></path><path d="M108.76,97.65a0,0,0,0,0,0,.07c1.67,1.16,2.24,3.09,2.52,5a1.52,1.52,0,0,0-2.12-.91s0,.11,0,.11a1.69,1.69,0,0,1,1.68,1,8.46,8.46,0,0,1,.53,1.66c0,.18.36.16.34,0v0C112.29,102.17,111.22,98.46,108.76,97.65Z" style="fill: rgb(38, 50, 56); transform-origin: 110.312px 101.179px;" id="el481ksia8er3" class="animable"></path><path d="M103.08,121.29C94,125.33,62.33,152,60.1,159,56.63,170,58.89,190.66,60,190.48c2.88-.47,28.6-5.66,27.29-8.37-1.16-2.41-4.8-11.94-5-15.93-.08-1.91,21.2-29.51,25.19-35.49C112.65,123,111,117.78,103.08,121.29Z" style="fill: rgb(173, 99, 89); transform-origin: 84.348px 155.328px;" id="eldyif1jw9xee" class="animable"></path><path d="M75.23,178.85a4.11,4.11,0,0,1,4.22,2.32s1.53-3.41,4.64-3.4c1.6,0,3,2.57,3,2.57s1.35-2.68,4.11-2.49c2.2.14,3.27,2.69,3.27,2.69s2.49-2,4.69-1.1c4.45,1.76,5.19,20.67-1.66,23.87-3.2,1.49-3.13-3.14-3.13-3.14s-1.71,6.63-5.6,6.89-3.45-5.76-3.45-5.76-1.71,6.41-5.77,6.27c-4.23-.15-2.75-6.09-2.75-6.09S74.1,205.8,71,205c-5.1-1.36.68-10.3-.47-14.42l-10.58,0S67.69,179.83,75.23,178.85Z" style="fill: rgb(173, 99, 89); transform-origin: 81.2623px 192.671px;" id="elq3oopvyvsrm" class="animable"></path><path d="M99.69,184.35c4.26.71,8.21-5.17,12.38-5.08,5.65.12,2,9.65-5.74,11.33H99.7Z" style="fill: rgb(173, 99, 89); transform-origin: 107.252px 184.934px;" id="ellh02kjti00l" class="animable"></path><path d="M94.69,180.91a0,0,0,1,1,.09,0,32.85,32.85,0,0,1-.39,19.53c-.07.2-.43.17-.39-.06A67.47,67.47,0,0,0,94.69,180.91Z" style="fill: rgb(38, 50, 56); transform-origin: 95.0369px 190.742px;" id="el7s3b1adjocr" class="animable"></path><path d="M87.12,180.25c0-.07.11-.09.13,0,1.78,6.36,1.61,14.59-1.76,21.28-.11.23-.44.32-.33,0C87.06,197,87.88,186.32,87.12,180.25Z" style="fill: rgb(38, 50, 56); transform-origin: 86.754px 190.964px;" id="elfsqxxhweh35" class="animable"></path><path d="M76.39,201.89c3-6.53,3.56-13.36,3.14-20.46,0-.1.13-.09.15,0,1.15,3.42.94,8,.48,11.51A18.89,18.89,0,0,1,76.62,202C76.54,202.1,76.33,202,76.39,201.89Z" style="fill: rgb(38, 50, 56); transform-origin: 78.4537px 191.7px;" id="el5szmrt3w479" class="animable"></path><path d="M63.5,186c-.08.07,0,.18.11.11,3.22-2.77,12.66-10.86,15.92-4.66.12.21.33.3.26,0C78.77,177.56,74.73,175.2,63.5,186Z" style="fill: rgb(38, 50, 56); transform-origin: 71.6358px 182.159px;" id="ela4tzwexpjjv" class="animable"></path><path d="M83.11,177.39a4.92,4.92,0,0,0-3.61,4.13.15.15,0,0,0,.27.07,5.69,5.69,0,0,1,2.53-3.18c2-1,3.68.33,4.74,2a.16.16,0,0,0,.3-.12A3.83,3.83,0,0,0,83.11,177.39Z" style="fill: rgb(38, 50, 56); transform-origin: 83.4257px 179.504px;" id="elgj1zfb34bno" class="animable"></path><path d="M91.39,177.39a4.52,4.52,0,0,0-4.27,2.8c-.14.28.17.28.19.26,1.17-1.18,2.33-2.6,4.18-2.24,1.41.27,2.22,1.42,3.06,2.45.08.1.2,0,.18-.1A3.8,3.8,0,0,0,91.39,177.39Z" style="fill: rgb(38, 50, 56); transform-origin: 90.908px 179.045px;" id="elmdgxs9gznec" class="animable"></path><path d="M100.68,180.87a3.29,3.29,0,0,0-6.06-.23,0,0,0,0,0,0,0,4.11,4.11,0,0,1,6,.26C100.74,181.07,100.73,181,100.68,180.87Z" style="fill: rgb(38, 50, 56); transform-origin: 97.6676px 179.871px;" id="elhchqaa2n8c" class="animable"></path><path d="M97.28,179c-.07,0,.14.52.21.52,4-.05,4.32,7.68,5.08,11.1,0,.07.1,0,.11,0C102.9,187.88,102.15,177.89,97.28,179Z" style="fill: rgb(38, 50, 56); transform-origin: 99.9898px 184.783px;" id="elttd6enx9mzj" class="animable"></path><path d="M74.36,138.77,92.3,153.84s11.15-14.37,16.24-24.14,3.08-15-10.76-6.76A232.66,232.66,0,0,0,74.36,138.77Z" style="fill: rgb(69, 90, 100); transform-origin: 92.7253px 136.347px;" id="elleeeyjirlfd" class="animable"></path><path d="M94.14,149.78q-3.51-3.48-7.2-6.79c-1.21-1.09-2.41-2.19-3.64-3.26s-2.62-2.1-3.89-3.2c-.09-.08-.22,0-.13.13,1.19,1.1,2.3,2.29,3.48,3.4s2.48,2.26,3.73,3.37q3.69,3.33,7.54,6.45C94.11,149.94,94.21,149.85,94.14,149.78Z" style="fill: rgb(38, 50, 56); transform-origin: 86.7066px 143.199px;" id="elqo59v18yuv" class="animable"></path><path d="M91.55,153.21c.27.18.55.36.81.56h-.13c.82-1.35,1.72-2.66,2.6-4s1.83-2.59,2.77-3.86,1.9-2.53,2.91-3.75,2-2.46,3.08-3.63c-.8,1.37-1.68,2.69-2.56,4s-1.81,2.61-2.74,3.89-1.89,2.53-2.87,3.78-2,2.47-3,3.66l-.07.07-.07-.06Z" style="fill: rgb(38, 50, 56); transform-origin: 97.57px 146.23px;" id="ely763lpl84rh" class="animable"></path><path d="M103.48,141.43a9.17,9.17,0,0,1-1.83,1.59,8.86,8.86,0,0,1-2.14,1.11,10,10,0,0,1,4-2.7Z" style="fill: rgb(38, 50, 56); transform-origin: 101.51px 142.78px;" id="elwktegzbdq6" class="animable"></path></g><g id="freepik--character-1--inject-94" class="animable" style="transform-origin: 231.097px 313.883px;"><polygon points="135.78 362.86 98.96 362.86 77.89 257.8 111.6 242.31 135.78 362.86" style="fill: rgb(55, 71, 79); transform-origin: 106.835px 302.585px;" id="elhjkvvopcg9n" class="animable"></polygon><polygon points="235.17 362.86 135.78 362.86 111.6 242.31 210.99 242.31 235.17 362.86" style="fill: rgb(69, 90, 100); transform-origin: 173.385px 302.585px;" id="elgku1e9g85l9" class="animable"></polygon><rect x="60.45" y="306.49" width="56.43" height="115.78" style="fill: rgb(55, 71, 79); transform-origin: 88.665px 364.38px;" id="els8r8knawci" class="animable"></rect><polygon points="262.25 422.27 246.84 422.27 223.86 306.49 262.25 306.49 262.25 422.27" style="fill: rgb(55, 71, 79); transform-origin: 243.055px 364.38px;" id="eldlg8tg12dci" class="animable"></polygon><rect x="116.88" y="306.49" width="31.01" height="115.78" style="fill: rgb(69, 90, 100); transform-origin: 132.385px 364.38px;" id="elup8q1x1ljab" class="animable"></rect><rect x="262.25" y="306.49" width="31.01" height="115.78" style="fill: rgb(69, 90, 100); transform-origin: 277.755px 364.38px;" id="el5yy63yu2ddf" class="animable"></rect><rect x="147.89" y="362.86" width="114.37" height="59.42" style="fill: rgb(69, 90, 100); transform-origin: 205.075px 392.57px;" id="el77666v3udkd" class="animable"></rect><rect x="147.89" y="337.17" width="114.37" height="25.93" style="fill: rgb(69, 90, 100); transform-origin: 205.075px 350.135px;" id="eljc1zyg0foj" class="animable"></rect><path d="M124.48,306.49l11.7-.21,11.71-.14h.35v.36l.13,13.55,0,13.55c0,9,.06,18.07,0,27.1s0,18.07-.15,27.1-.2,18.07-.39,27.1q-.3-13.54-.4-27.1c-.11-9-.12-18.07-.15-27.1s0-18.07,0-27.1L147.4,320l.13-13.55.36.36-11.71-.15Z" style="fill: rgb(38, 50, 56); transform-origin: 136.438px 360.52px;" id="elpx2mi0yjk" class="animable"></path><path d="M262.25,306.49c.24,9.07.36,18.13.45,27.2l.14,27.2-.14,27.2-.16,13.6-.29,13.6-.28-13.6-.17-13.6-.13-27.2.13-27.2C261.9,324.62,262,315.56,262.25,306.49Z" style="fill: rgb(38, 50, 56); transform-origin: 262.255px 360.89px;" id="elaniw3s7tff" class="animable"></path><path d="M262.25,362.86c-10,.24-20.06.35-30.09.45l-30.09.13L178,363.31l-15-.16-15-.29,15-.29,15-.16,24.09-.14,30.09.14C242.19,362.5,252.22,362.62,262.25,362.86Z" style="fill: rgb(38, 50, 56); transform-origin: 205.125px 362.855px;" id="el2o9yazw0eyc" class="animable"></path><path d="M262.25,337.17c-10,.24-20.06.36-30.09.45l-30.09.14L178,337.62l-15-.16-15-.29,15-.28,15-.17,24.09-.13,30.09.13C242.19,336.82,252.22,336.93,262.25,337.17Z" style="fill: rgb(38, 50, 56); transform-origin: 205.125px 337.175px;" id="elopgoqwocci" class="animable"></path><polygon points="81.9 422.27 81.13 431.65 79.35 453.33 71.18 453.33 69.4 431.65 68.64 422.27 81.9 422.27" style="fill: rgb(199, 199, 199); transform-origin: 75.27px 437.8px;" id="eliruacaoxzh" class="animable"></polygon><polygon points="68.64 422.27 81.9 422.27 81.13 431.65 69.4 431.65 68.64 422.27" style="fill: rgb(166, 166, 166); transform-origin: 75.27px 426.96px;" id="elc9ntvz41ug" class="animable"></polygon><polygon points="139.01 422.27 138.25 431.65 136.47 453.33 128.3 453.33 126.52 431.65 125.75 422.27 139.01 422.27" style="fill: rgb(199, 199, 199); transform-origin: 132.38px 437.8px;" id="el7fapwabdqtb" class="animable"></polygon><polygon points="125.75 422.27 139.01 422.27 138.25 431.65 126.52 431.65 125.75 422.27" style="fill: rgb(166, 166, 166); transform-origin: 132.38px 426.96px;" id="elpx2zvw2qhxg" class="animable"></polygon><polygon points="227.75 422.27 226.99 431.65 225.21 453.33 217.04 453.33 215.25 431.65 214.49 422.27 227.75 422.27" style="fill: rgb(199, 199, 199); transform-origin: 221.12px 437.8px;" id="elqvsyi9tp5eo" class="animable"></polygon><polygon points="214.49 422.27 227.75 422.27 226.99 431.65 215.25 431.65 214.49 422.27" style="fill: rgb(166, 166, 166); transform-origin: 221.12px 426.96px;" id="elitfuja9rai" class="animable"></polygon><polygon points="284.88 422.27 284.12 431.65 282.34 453.33 274.17 453.33 272.39 431.65 271.62 422.27 284.88 422.27" style="fill: rgb(199, 199, 199); transform-origin: 278.25px 437.8px;" id="elu4pw5e89tdc" class="animable"></polygon><polygon points="284.88 422.27 284.12 431.65 272.39 431.65 271.62 422.27 284.88 422.27" style="fill: rgb(166, 166, 166); transform-origin: 278.25px 426.96px;" id="el204bhqxrb4k" class="animable"></polygon><path d="M401.17,302c-2,1.32-64.57,18.4-67.36,17.54-.31-.09-.86-2.9-3.42-9.91-.13-.33-1.87-1.35-4.55-2.73-10-5.18-33.28-15.64-33.28-15.64l25.36-34.52,37.35,23.16,9.72,6s28.6,6.45,31.57,7.71S403.16,300.69,401.17,302Z" style="fill: rgb(247, 169, 160); transform-origin: 347.15px 288.156px;" id="elvkrhhf8e96p" class="animable"></path><path d="M401.18,302c-2,1.32-64.58,18.4-67.38,17.55-.3-.1-.86-2.91-3.41-9.92,9.35-.67,58.12-9,58.51-15.09.16-2.38-7.93-4.84-9.39-5.27,7.57,1.78,15.56,3.73,17.05,4.36C399.51,294.93,403.16,300.69,401.18,302Z" style="fill: rgb(38, 50, 56); transform-origin: 366.067px 304.425px;" id="eliv6yh78yo0r" class="animable"></path><path d="M341,268.4l-3.62,6.65-18,33.2s-38.9-16.76-50.52-22.56c-.38-.19-32.81,35.81-59.84,47.44-20.72,8.92-37.27,4.08-50.3-14.18l32.18-23.89c26.64-21.53,55.1-52.65,76.08-54.78C289.7,238,341,268.4,341,268.4Z" style="fill: rgb(38, 50, 56); transform-origin: 249.86px 288.818px;" id="eloe5l6m1ybpa" class="animable"></path><path d="M332.87,268.1c-3.77,6.52-2.78,4.6-6.47,11.16-1.81,3.2-10.95,19.31-12.14,22.59,0,.07.09.13.13.07,2.14-2.76,10.92-19.06,12.67-22.3,3.58-6.62,2.48-4.76,6-11.42A.1.1,0,1,0,332.87,268.1Z" style="fill: rgb(55, 71, 79); transform-origin: 323.666px 284.994px;" id="elwc54f60xsrf" class="animable"></path><path d="M334.48,280.33l-15.16,27.92s-38.91-16.76-50.52-22.56c-.38-.19-32.81,35.81-59.84,47.44-20.72,8.92-37.28,4.08-50.3-14.18l32.18-23.89c3.53-2.85,7.09-5.87,10.66-9C234.19,284.74,305.78,281.6,334.48,280.33Z" style="fill: rgb(55, 71, 79); transform-origin: 246.57px 308.904px;" id="el2lyvtsghkrr" class="animable"></path><path d="M383.1,377.71c-2.32.56-67-5-69.28-6.81-.25-.2.2-3,.22-10.48,0-.36-1.29-1.91-3.33-4.13-7.64-8.34-25.83-26.18-25.83-26.18l35.73-23.64,27.05,34.64,7,9s24.61,15.93,27,18.15S385.42,377.15,383.1,377.71Z" style="fill: rgb(247, 169, 160); transform-origin: 334.588px 342.11px;" id="elhghqlek7t0t" class="animable"></path><path d="M383.1,377.71c-2.32.55-67-5-69.28-6.81-.25-.2.19-3,.21-10.48,9,2.6,57.67,11.6,60.13,6.05,1-2.18-5.77-7.28-7-8.18,6.49,4.28,13.31,8.86,14.49,10C384,370.49,385.42,377.15,383.1,377.71Z" style="fill: rgb(38, 50, 56); transform-origin: 349.013px 368.019px;" id="elchut7jpehrb" class="animable"></path><path d="M151.46,291.41s-8.12,25.19,3.92,38c8.67,9.23,21.32,11.69,32.57,11.58,31.1-.32,61.81-33.78,72.21-34.41,5.34-.32,41,45.57,41,45.57L337,325.54c-7.17-8.09-49-63.23-73.34-66.43-16.67-2.2-63.49,26.86-64.45,26.32-1.58-.88-8.51-5.41-8.51-5.41Z" style="fill: rgb(38, 50, 56); transform-origin: 242.891px 305.571px;" id="elh82cn2m3x69" class="animable"></path><path d="M331,321.42c-4.42,2.83-8.63,6-12.86,9.06s-8.41,6.15-12.56,9.29c-2.35,1.79-4.69,3.58-7,5.44a.06.06,0,0,0,.07.09c4.38-2.89,8.63-6,12.87-9.05s8.4-6.15,12.56-9.28c2.35-1.77,4.73-3.54,7-5.43A.08.08,0,0,0,331,321.42Z" style="fill: rgb(55, 71, 79); transform-origin: 314.831px 333.361px;" id="elk00wtdxu2b9" class="animable"></path><path d="M177.27,290.76c0-.14-.26-.07-.25.07a17,17,0,0,1-2.86,11.31c-2.58,3.67-6.7,6-10.41,8.37-.35.23,0,.78.37.63a34.54,34.54,0,0,0,6.59-3.67,16.72,16.72,0,0,0,4.75-4.84A14.91,14.91,0,0,0,177.27,290.76Z" style="fill: rgb(55, 71, 79); transform-origin: 170.694px 300.925px;" id="elvy273fc1qxm" class="animable"></path><path d="M199.43,288.1c-.84-.82-1.75-1.58-2.62-2.37-2.07-1.87-4.14-3.74-6.28-5.53-.21-.16-.51.16-.32.35,1.48,1.46,3,2.86,4.55,4.28l2.35,2.17a15.85,15.85,0,0,1,2.21,2.12,1.21,1.21,0,0,1-.85,1.94,3.31,3.31,0,0,1-2.38-.52,30.15,30.15,0,0,1-4.41-3.58c-.86-.74-1.73-1.47-2.6-2.2s-1.9-1.49-2.83-2.26c-.06-.05-.15,0-.09.1.83.87,1.62,1.79,2.46,2.65s1.68,1.73,2.54,2.58,1.64,1.58,2.5,2.34a8.89,8.89,0,0,0,2.43,1.64c1.45.61,3.82.45,4.29-1.39A2.44,2.44,0,0,0,199.43,288.1Z" style="fill: rgb(55, 71, 79); transform-origin: 193.274px 286.143px;" id="elawm046vhwpo" class="animable"></path><path d="M300.86,341.34c-8.58-10.62-32-37.88-37.48-42.64a5.32,5.32,0,0,0-4.06-1.23,11.31,11.31,0,0,0-4.34,2l-4.82,2.88-9.9,5.92c-6.19,3.71-12.35,7.47-18.58,11.1A126.87,126.87,0,0,1,204.45,328c-11.43,4.52-25.39,6.53-36.46-.12a24.33,24.33,0,0,1-10.47-13.52c-1.84-5.62-2.13-11.64-2-17.51,0-1.42.08-2.84.16-4.26,0-.07-.11-.09-.11,0-.89,11-.83,23.86,7.46,32.26,8.81,8.92,22.79,9.41,34.23,6.38,12.81-3.39,24.15-10.77,35.4-17.52l19.66-11.8c1.59-.95,3.15-2,4.78-2.86s3.47-1.48,5-.27c5.2,4,37.35,41.45,38.49,42.75C300.74,341.7,301,341.5,300.86,341.34Z" style="fill: rgb(55, 71, 79); transform-origin: 228.047px 317.062px;" id="elyfsbp9x98zl" class="animable"></path><path d="M224.51,272.16a150.51,150.51,0,0,1,28.06-12,41,41,0,0,1,7.54-1.53,15.06,15.06,0,0,1,3.91.06,22.17,22.17,0,0,1,3.78.92A55.7,55.7,0,0,1,281.26,267a139.39,139.39,0,0,1,11.89,9.64c3.79,3.41,7.48,6.93,11,10.6a300.32,300.32,0,0,1,20.1,23c-3.32-3.86-6.66-7.69-10.11-11.42s-6.93-7.44-10.54-11a187.31,187.31,0,0,0-22.92-20,55.15,55.15,0,0,0-13.18-7.32,16.64,16.64,0,0,0-7.32-1,46.4,46.4,0,0,0-7.42,1.4,119.72,119.72,0,0,0-14.36,5C233.71,267.82,229.08,269.93,224.51,272.16Z" style="fill: rgb(55, 71, 79); transform-origin: 274.38px 284.385px;" id="elq297obglj1p" class="animable"></path><path d="M148,248.32c0,.11.14.15.17,0,1.86-5.24,8.2-7.1,9.75-12.55a13.14,13.14,0,0,0-.24-7.35,35.41,35.41,0,0,0-1.87-4.51l-.24-.72a27,27,0,0,1-1.2-4.66,15.81,15.81,0,0,1,.35-5.44c.72-3.43,1.69-6.84.21-10.22-1.23-2.81-3.58-7.06-6.16-8.64-5.85-3.58-13.8-2.82-19.75,1.27a12.61,12.61,0,0,0-2.76,2.6,14.67,14.67,0,0,0-7,5.47c-2.21,3.49-.66,7.43-1.51,9.25-.74,1.61-2.22,2.71-3.38,4a30.09,30.09,0,0,0-3.15,3.34,10.82,10.82,0,0,0-2.05,5.88,11.9,11.9,0,0,0,.83,5.6,9.61,9.61,0,0,0,3.55,4c.36.25.73.48,1.09.72l0,0c1.15,1.22,2.48,2.28,3.53,3.6a7.55,7.55,0,0,1,1.61,5.1c0,1.71-.41,3.39-.57,5.1a12.27,12.27,0,0,0,.41,4.71,14.41,14.41,0,0,0,5.47,7.44A21.85,21.85,0,0,0,135.29,266c3.25.38,6.56,0,9.14-2.18a10.33,10.33,0,0,0,3.7-7.59,27.62,27.62,0,0,0-.81-5.19,8.24,8.24,0,0,1,.53-5.07c2.46-5.24,9.07-7.77,9.56-14.06a14.26,14.26,0,0,0-.57-4.77,14.05,14.05,0,0,1,.93,7.63c-.53,2.86-2.31,5-4.41,6.86S148.87,245.49,148,248.32Zm-34.18-12.77a9.49,9.49,0,0,1-4.11-5.91,12.77,12.77,0,0,1,1-8.06,14.51,14.51,0,0,1,2.43-3.14.6.6,0,0,1,.08-.08,13.7,13.7,0,0,0-1.23,2.3,15.48,15.48,0,0,0-1,8.19,14.11,14.11,0,0,0,2.94,6.76Z" style="fill: rgb(38, 50, 56); transform-origin: 133.725px 229.034px;" id="elw6k28812zg" class="animable"></path><path d="M182.44,182.75l3.25,30.75c0,.94.67,1.46,1.48,1.16l14.53-5.34a2.51,2.51,0,0,0,1.46-2.24l-3.25-30.75c0-.94-.67-1.46-1.48-1.16l-14.52,5.34A2.52,2.52,0,0,0,182.44,182.75Z" style="fill: rgb(55, 71, 79); transform-origin: 192.8px 194.915px;" id="elhz60lxsxij" class="animable"></path><path d="M184.16,182.1l3.25,30.75c0,.94.67,1.46,1.48,1.16l14.52-5.34a2.49,2.49,0,0,0,1.47-2.23l-3.25-30.76c0-.94-.67-1.46-1.48-1.16l-14.52,5.34A2.5,2.5,0,0,0,184.16,182.1Z" style="fill: rgb(69, 90, 100); transform-origin: 194.52px 194.265px;" id="elftyfi75vxyk" class="animable"></path><path d="M188.62,181.92a1.32,1.32,0,1,1-1.67-.82A1.32,1.32,0,0,1,188.62,181.92Z" style="fill: rgb(38, 50, 56); transform-origin: 187.372px 182.351px;" id="el90vuyejxmnm" class="animable"></path><path d="M152.64,248.34c16.17,12.78,44.58,25.66,51.91,22.12,3.48-1.68,10.08-3.94,12.64-10.19,5.58-13.64,6.55-34,4.37-44-.81-3.75-23.05-3.49-24.11.48-2.46,9.29-2.76,25.24-3.8,25.67-3.87,1.58-24.5-3.28-38.93-6.74C137.2,231.43,146.19,243.25,152.64,248.34Z" style="fill: rgb(247, 169, 160); transform-origin: 183.576px 242.332px;" id="elwtcb65zuq8g" class="animable"></path><path d="M215.64,199.48c-4.41-6.57-6.56-7.58-7.34-15.1-.51-4.94-3.88-6.73-5.8-1.94-3.13,7.84.78,17.52,3.11,20.48Z" style="fill: rgb(247, 169, 160); transform-origin: 208.487px 191.275px;" id="elgxevcy8z6da" class="animable"></path><path d="M222.05,221.43s-.37-11.22-4.39-18.69c-2.77-5.17-10.06-15.73-27.54-16.43-4.15-.16-10.18,2.54-3.5,5.27,4.74,1.94,8.33,1.74,10.88,3.37,0,0-7.25,4.35-7.26,8.51a76,76,0,0,0,.77,10.88,18.25,18.25,0,0,0,2,0s.12,3.89,4.48,7.92Z" style="fill: rgb(247, 169, 160); transform-origin: 202.842px 204.282px;" id="el6urrfsggiea" class="animable"></path><path d="M214.23,198.23c-2.88-1.08-9-3.27-14.65-3.32-6.26,0-18.35,1.53-18.34,6.16,0,3.39,4.67,3.19,4.67,3.19s-4.85,1.71-4.18,4.77c.62,2.79,4.22,2.42,4.22,2.42s-2.77,1.54-1.66,4.11c1.34,3.1,6.92-.64,11,1.33C196.18,217.33,214.23,198.23,214.23,198.23Z" style="fill: rgb(247, 169, 160); transform-origin: 197.735px 205.904px;" id="elkivdzzn61kh" class="animable"></path><path d="M200.63,201.54a24.92,24.92,0,0,0-14.65,2.6c-.12.07-.13.19,0,.15a60.91,60.91,0,0,1,14.66-2.69S200.66,201.55,200.63,201.54Z" style="fill: rgb(38, 50, 56); transform-origin: 193.266px 202.818px;" id="elo4v1ul20y1" class="animable"></path><path d="M200.39,207.86c-2.53-.24-9.58.45-14.47,3.48-.11.06-.11.18,0,.14a66.28,66.28,0,0,1,14.47-3.56S200.42,207.86,200.39,207.86Z" style="fill: rgb(38, 50, 56); transform-origin: 193.12px 209.652px;" id="elpi93qxnvdwg" class="animable"></path><path d="M174,264.22l2-25.49s-18.36-4.51-28.33-4.78c-5.59-.15-5.79,4.18-2.45,8C156.9,255.21,174,264.22,174,264.22Z" style="fill: rgb(255, 199, 39); transform-origin: 159.511px 249.083px;" id="eluabib455g5s" class="animable"></path><path d="M174,264.22l2-25.49s-18.36-4.51-28.33-4.78c-5.59-.15-5.79,4.18-2.45,8C156.9,255.21,174,264.22,174,264.22Z" style="fill: rgb(255, 199, 39); transform-origin: 159.511px 249.083px;" id="elmclharxvnm" class="animable"></path><path d="M153.52,242.82a1.2,1.2,0,1,1-1.19-1.19A1.19,1.19,0,0,1,153.52,242.82Zm12.7-1.19a1.2,1.2,0,0,0,0,2.39,1.2,1.2,0,1,0,0-2.39Zm-6.94,12a1.18,1.18,0,0,0-.89.4c.65.49,1.28,1,1.91,1.42a1.18,1.18,0,0,0,.17-.62A1.19,1.19,0,0,0,159.28,253.62Zm13.89,0a1.2,1.2,0,1,0,1.19,1.2A1.19,1.19,0,0,0,173.17,253.62Z" style="fill: rgb(255, 255, 255); transform-origin: 162.74px 248.827px;" id="el95ita1ygezd" class="animable"></path><g id="elh6ru0a3mbm7"><path d="M175.77,241.64,174,264.22s-17.07-9-28.74-22.29c-2.29-2.61-2.91-5.47-1.26-7Z" style="opacity: 0.1; transform-origin: 159.42px 249.575px;" class="animable"></path></g><path d="M171.93,239.3a169.48,169.48,0,0,0-2.1,21.53s.16.06.16,0c.91-5.84,1.88-17.59,2.18-21.52C172.17,239.25,171.94,239.23,171.93,239.3Z" style="fill: rgb(38, 50, 56); transform-origin: 171px 250.056px;" id="el4ba5lxztk17" class="animable"></path><path d="M179.14,261.37l20.29,23.9s-39.56,14.3-51.87,18.3c0,0-22.82-42.17-15.61-61.36,3.6-9.6,9.11-11,15.91-8.05,1.72.74,23.61,8.13,28.12,14.85A19.93,19.93,0,0,1,179.14,261.37Z" style="fill: rgb(255, 199, 39); transform-origin: 164.986px 268.177px;" id="el2711swfnrhx" class="animable"></path><path d="M139.63,242.82a1.2,1.2,0,1,1-2.39,0,1.2,1.2,0,0,1,2.39,0Zm12.7-1.19a1.2,1.2,0,1,0,1.19,1.19A1.19,1.19,0,0,0,152.33,241.63Zm15,.88c-.5-.28-1-.55-1.54-.81h0a1.18,1.18,0,0,0-.8,1.12,1.2,1.2,0,1,0,2.39,0A1.06,1.06,0,0,0,167.38,242.51Zm-28.95,22.3a1.19,1.19,0,1,0,1.2,1.19A1.19,1.19,0,0,0,138.43,264.81Zm13.9,0a1.19,1.19,0,1,0,1.19,1.19A1.19,1.19,0,0,0,152.33,264.81Zm13.89,0a1.19,1.19,0,1,0,1.2,1.19A1.19,1.19,0,0,0,166.22,264.81Zm13.9,0a1.19,1.19,0,1,0,1.19,1.19A1.19,1.19,0,0,0,180.12,264.81Zm-48.63-11.19a1.24,1.24,0,0,0-.85.35c0,.6.08,1.2.15,1.81h0a1.21,1.21,0,0,0,.7.22,1.2,1.2,0,0,0,0-2.39Zm13.89,0a1.2,1.2,0,1,0,1.2,1.2A1.19,1.19,0,0,0,145.38,253.62Zm13.9,0a1.2,1.2,0,1,0,0,2.39,1.2,1.2,0,0,0,0-2.39Zm13.89,0a1.2,1.2,0,1,0,1.19,1.2A1.19,1.19,0,0,0,173.17,253.62ZM152.33,288a1.2,1.2,0,1,0,0,2.39,1.2,1.2,0,0,0,0-2.39Zm13.89,0a1.2,1.2,0,1,0,1.2,1.2A1.19,1.19,0,0,0,166.22,288Zm13.9,0a1.2,1.2,0,1,0,0,2.39,1.2,1.2,0,0,0,0-2.39ZM145.38,276.8a1.2,1.2,0,1,0,1.2,1.2A1.19,1.19,0,0,0,145.38,276.8Zm13.9,0a1.2,1.2,0,1,0,0,2.39,1.2,1.2,0,0,0,0-2.39Zm13.89,0a1.2,1.2,0,1,0,1.19,1.2A1.19,1.19,0,0,0,173.17,276.8Zm13.89,0a1.2,1.2,0,1,0,1.2,1.2A1.2,1.2,0,0,0,187.06,276.8ZM145.74,300l.77,1.53a1.09,1.09,0,0,0,.07-.4A1.18,1.18,0,0,0,145.74,300Z" style="fill: rgb(255, 255, 255); transform-origin: 159.425px 271.58px;" id="el4qosxsrpqkf" class="animable"></path><path d="M170,262.94a52.88,52.88,0,0,0-7,3.79c-1.1.72-2.16,1.5-3.2,2.3-.53.4-1.06.78-1.59,1.15a9.13,9.13,0,0,1-1.79,1s0,.1,0,.09a15.37,15.37,0,0,0,1.82-.68,12.18,12.18,0,0,0,1.64-.94c1.12-.72,2.21-1.5,3.32-2.24,2.25-1.49,4.49-3,6.84-4.31C170.19,263.07,170.09,262.88,170,262.94Z" style="fill: rgb(38, 50, 56); transform-origin: 163.269px 267.1px;" id="elhwyv15mvg5e" class="animable"></path><path d="M176.91,263a57.36,57.36,0,0,0-6.29,1.85c-1,.37-2,.8-3,1.25l-1.42.68c-.51.26-1,.58-1.51.83,0,0,0,.11,0,.09.5-.22,1-.36,1.54-.55l1.53-.58c1-.38,2-.75,3.06-1.14,2-.79,4.08-1.55,6.14-2.27C177.08,263.14,177,263,176.91,263Z" style="fill: rgb(38, 50, 56); transform-origin: 170.855px 265.351px;" id="elk4b0pann3qm" class="animable"></path><path d="M131.16,239.9c-17.53,18.37-39.32,55.79-35,63.43,4.8,8.51,29.88-17.49,29.08-18.74-.67-1.07,8.26-23.37,14.61-40.28S135.49,235.36,131.16,239.9Z" style="fill: rgb(247, 169, 160); transform-origin: 118.709px 269.523px;" id="eltu2imkhnd4g" class="animable"></path><path d="M109.69,261.92l25.16,4.53s6.28-17.83,7.53-27.73c.7-5.55-2.56-5.77-6.66-2.83C121.36,246.21,109.69,261.92,109.69,261.92Z" style="fill: rgb(255, 199, 39); transform-origin: 126.083px 250.233px;" id="elrny54pcpbn" class="animable"></path><path d="M139.63,242.82a1.2,1.2,0,1,1-2.39,0,1.2,1.2,0,0,1,2.39,0Zm-22,10.8a1.2,1.2,0,1,0,1.2,1.2A1.19,1.19,0,0,0,117.59,253.62Zm13.9,0a1.2,1.2,0,1,0,0,2.39,1.2,1.2,0,0,0,0-2.39Z" style="fill: rgb(255, 255, 255); transform-origin: 128.033px 248.875px;" id="el5m12r80skw5" class="animable"></path><path d="M134.69,262.33a170.13,170.13,0,0,0-21.23-4.19s-.07.15,0,.16c5.72,1.48,17.32,3.58,21.2,4.27C134.71,262.58,134.76,262.35,134.69,262.33Z" style="fill: rgb(38, 50, 56); transform-origin: 124.077px 260.355px;" id="el0xl19qxu8ivi" class="animable"></path><path d="M131.78,265.9c1,.1,2.08.23,3.11.37l-.22.12c.75-2.74,1.58-5.45,2.47-8.15s1.85-5.37,2.93-8c-.65,2.76-1.45,5.49-2.29,8.21s-1.75,5.4-2.75,8.06l-.06.17-.15,0C133.8,266.42,132.79,266.17,131.78,265.9Z" style="fill: rgb(38, 50, 56); transform-origin: 135.925px 258.46px;" id="el4ojxzaanuqy" class="animable"></path><path d="M138.41,255.66a7.61,7.61,0,0,1,.86-1.59,11.44,11.44,0,0,1,1.13-1.41,3.3,3.3,0,0,1-.29.87,6.13,6.13,0,0,1-.46.78A5.88,5.88,0,0,1,138.41,255.66Z" style="fill: rgb(38, 50, 56); transform-origin: 139.405px 254.16px;" id="elcx8wdnwucmg" class="animable"></path><path d="M96.72,304.11c4.75,5.15,15.72,4.75,43.45,6.35,3.83.22,12.68-26.43,8.59-26.88-5.14-.56-25.23-1.63-26.71-1.52C109.58,283,93.49,300.62,96.72,304.11Z" style="fill: rgb(247, 169, 160); transform-origin: 123.058px 296.257px;" id="eltfpjfv5nap" class="animable"></path><path d="M143.19,283.09s11.68.16,17.78,2.15a41.26,41.26,0,0,1,16.5,10.84c4.92,5.27,13.18,21.41,8.94,24.6-3.83,2.88-11.43-14-11.43-14s10.6,16,5.34,18.6-13-17.52-13-17.52,10.52,16.66,4.68,18.51c-4.42,1.4-12.43-16.46-12.43-16.46s8.95,14.38,4.47,16c-5,1.8-13.38-14.21-13.38-14.21-12.09,2.24-18.76-1.64-23.18-5C126.45,305.81,143.19,283.09,143.19,283.09Z" style="fill: rgb(247, 169, 160); transform-origin: 157.508px 304.719px;" id="el8803tazkxas" class="animable"></path><path d="M171.67,300.88c1.31,1.83,2.65,3.68,3.8,5.62s2.22,3.92,3.18,6a38.69,38.69,0,0,1,3,8.29c-1.57-5-5.56-12-6.71-14s-2.19-3.93-3.33-5.87C171.56,300.87,171.64,300.84,171.67,300.88Z" style="fill: rgb(38, 50, 56); transform-origin: 176.622px 310.826px;" id="eldxxssysp4le" class="animable"></path><path d="M164.58,304.89c1.58,2.41,3.23,4.74,4.7,7.23s2.63,4.94,3.92,7.5c.1.2,0,.19-.15,0-1.39-2.51-2.87-4.72-4.29-7.22s-2.74-5-4.24-7.47A0,0,0,0,1,164.58,304.89Z" style="fill: rgb(38, 50, 56); transform-origin: 168.88px 312.328px;" id="eld2e46u81dy" class="animable"></path><path d="M157.88,307.24a63.59,63.59,0,0,1,6.33,11.6c.09.2-.08.16-.19,0-2-3.89-3.6-7-6.27-11.47C157.71,307.25,157.82,307.16,157.88,307.24Z" style="fill: rgb(38, 50, 56); transform-origin: 160.988px 313.092px;" id="elfqa3esafo2r" class="animable"></path><path d="M110.83,286c2.26-1.43,8.64-4.78,14.92-3.86.07,0,.06.12,0,.11-5.17,0-12.56,2.63-14.86,3.84C110.82,286.14,110.77,286.05,110.83,286Z" style="fill: rgb(38, 50, 56); transform-origin: 118.301px 284.044px;" id="el62e91ybjpyi" class="animable"></path><path d="M140.89,232.53c-6.67,1-4.52,7.69-1.4,10.64,2.09,2,5.48,2.77,7.74,1.83s.87-4.91.87-4.91,3.18,1.72,4.5.06S147.81,231.47,140.89,232.53Z" style="fill: rgb(255, 255, 255); transform-origin: 144.647px 238.91px;" id="eldyc1wowu81" class="animable"></path><path d="M137.6,236.26c.42.94,5.75,4.53,10.19,3.42,1.45-.36.45-6.5.45-6.5v-.62l.19-8.63-10.95-4.29-1.56-.54s.1,2.36.26,5.31c0,.13,0,.27,0,.42a3.85,3.85,0,0,0,0,.48c0,.43,0,.88.06,1.33s0,.67.08,1,.06.71.08,1.06A54.1,54.1,0,0,0,137.6,236.26Z" style="fill: rgb(247, 169, 160); transform-origin: 142.248px 229.495px;" id="elkpj3j8oklb" class="animable"></path><path d="M136.19,224.41a17.31,17.31,0,0,0,12.06,8.15l.19-8.63-10.95-4.29-1.56-.54S136,221.46,136.19,224.41Z" style="fill: rgb(38, 50, 56); transform-origin: 142.185px 225.83px;" id="el0p04xu0l60s" class="animable"></path><path d="M157.38,208.53c5.14,14.26-2.82,18.94-5.89,20.05-2.79,1-12.43,4.06-19-9.58s-1.58-20.55,4.68-23.18S152.24,194.28,157.38,208.53Z" style="fill: rgb(247, 169, 160); transform-origin: 144.23px 212.137px;" id="elfo79pcsz8m" class="animable"></path><path d="M153.89,205.86a9.12,9.12,0,0,1-1,.09,1.67,1.67,0,0,1-1.08-.12.53.53,0,0,1-.19-.63,1.34,1.34,0,0,1,1.18-.67,2,2,0,0,1,1.38.31A.57.57,0,0,1,153.89,205.86Z" style="fill: rgb(38, 50, 56); transform-origin: 152.993px 205.25px;" id="elxhqtry98uz9" class="animable"></path><path d="M144.61,209.16a10.18,10.18,0,0,0,.92-.5,1.63,1.63,0,0,0,.84-.69.55.55,0,0,0-.19-.63,1.34,1.34,0,0,0-1.35.08,2,2,0,0,0-1,1A.58.58,0,0,0,144.61,209.16Z" style="fill: rgb(38, 50, 56); transform-origin: 145.096px 208.203px;" id="el8yhebyfwtnr" class="animable"></path><path d="M148,212.25s-.06.07,0,.11c.34,1,.58,2.14-.2,2.76a0,0,0,0,0,0,0C148.78,214.67,148.45,213.11,148,212.25Z" style="fill: rgb(38, 50, 56); transform-origin: 148.119px 213.685px;" id="elfo7sa302xj" class="animable"></path><path d="M146.75,211.51c-1.61.39-.71,3.59.79,3.23S148.11,211.18,146.75,211.51Z" style="fill: rgb(38, 50, 56); transform-origin: 147.103px 213.127px;" id="els7iw5214ktr" class="animable"></path><path d="M146.17,211.85c-.23.26-.41.66-.74.79s-.77-.11-1.11-.36c0,0-.06,0,0,.06.16.61.58,1.18,1.26,1.08s.91-.75.89-1.41C146.41,211.89,146.26,211.75,146.17,211.85Z" style="fill: rgb(38, 50, 56); transform-origin: 145.382px 212.624px;" id="el4q9zsyp7p3n" class="animable"></path><path d="M153.09,210.26s.09,0,.1.07c.24,1,.68,2.11,1.67,2.2a0,0,0,0,1,0,.06C153.73,212.73,153.16,211.25,153.09,210.26Z" style="fill: rgb(38, 50, 56); transform-origin: 153.975px 211.43px;" id="el5180uuxg5wt" class="animable"></path><path d="M153.7,209c1.56-.56,2.56,2.62,1.11,3.14S152.38,209.45,153.7,209Z" style="fill: rgb(38, 50, 56); transform-origin: 154.296px 210.565px;" id="el6c5z5jdz3vp" class="animable"></path><path d="M154.42,209c.31.09.65.32,1,.24s.5-.51.62-.91c0,0,.05,0,.06,0,.21.6.21,1.3-.34,1.6s-1.05-.12-1.39-.68C154.27,209.14,154.3,209,154.42,209Z" style="fill: rgb(38, 50, 56); transform-origin: 155.27px 209.18px;" id="elwyzhfgdobx" class="animable"></path><path d="M149.78,219.82a1.59,1.59,0,0,0,1,.39,2.9,2.9,0,0,0,1-.5s.06,0,.05,0a1.4,1.4,0,0,1-1.15.84,1.09,1.09,0,0,1-1-.71S149.74,219.79,149.78,219.82Z" style="fill: rgb(38, 50, 56); transform-origin: 150.756px 220.13px;" id="elos0nkxp20gk" class="animable"></path><path d="M152.87,215a22.75,22.75,0,0,1,.84,2.12c0,.07-.14.15-.37.23h0a3.45,3.45,0,0,1-3.58-.3c-.07-.05,0-.15.08-.12a5.25,5.25,0,0,0,3.28,0c0-.21-1.18-2.4-1.07-2.44a6.52,6.52,0,0,1,1.69-.1c-1.24-3-3-5.77-4.15-8.77a.1.1,0,0,1,.17-.1,52.41,52.41,0,0,1,4.87,9.25C154.78,215.16,153.19,215.06,152.87,215Z" style="fill: rgb(38, 50, 56); transform-origin: 152.112px 211.6px;" id="elgif8isrgehf" class="animable"></path><path d="M153.19,216.9a4.18,4.18,0,0,1-1.06,1.85,1.9,1.9,0,0,1-1,.51c-.85.11-1.17-.58-1.28-1.24a4.37,4.37,0,0,1,0-1.07A5.48,5.48,0,0,0,153.19,216.9Z" style="fill: rgb(38, 50, 56); transform-origin: 151.504px 218.086px;" id="elf7cgsxtov4g" class="animable"></path><path d="M152.13,218.75a1.9,1.9,0,0,1-1,.51c-.85.11-1.17-.58-1.28-1.24A2,2,0,0,1,152.13,218.75Z" style="fill: rgb(255, 154, 187); transform-origin: 150.99px 218.591px;" id="ellv2ednjecdc" class="animable"></path><path d="M132.59,219.25c1.59-.6,4.45-6.36,2.17-14.24,0,0,1.55,7.22,1.34,8.41s1.59-3.24-.15-9.62a26.73,26.73,0,0,0,7.52,1.37c3.24-.08,5.06-.66,5.2-.95s-4.67-.31-6.28-1.32c0,0,9.08,1.26,12.83.41.43-.1-2.53-7.73-9.32-9.69s-13.75,3.56-15.44,6.62c0,0-2.71,1.28-4.5,6.41S130.87,219.89,132.59,219.25Z" style="fill: rgb(38, 50, 56); transform-origin: 140.46px 206.247px;" id="elg94mehufc16" class="animable"></path><path d="M135.14,219.27s-4.41-3.72-6.18-2,2.39,7.68,5.06,7.94a2.56,2.56,0,0,0,3-2.21Z" style="fill: rgb(247, 169, 160); transform-origin: 132.777px 221.034px;" id="elfzjq0iq6qj" class="animable"></path><path d="M130.19,218.93s0,.06,0,.07c1.89.23,3.21,1.58,4.27,3.05a1.41,1.41,0,0,0-2.14.17.05.05,0,0,0,.07.08,1.58,1.58,0,0,1,1.82.09,7.82,7.82,0,0,1,1.16,1.14c.12.13.37,0,.27-.18l0,0C135.09,221.12,132.59,218.53,130.19,218.93Z" style="fill: rgb(38, 50, 56); transform-origin: 132.927px 221.236px;" id="el1h7zswnj6ph" class="animable"></path></g><defs>     <filter id="active" height="200%">         <feMorphology in="SourceAlpha" result="DILATED" operator="dilate" radius="2"></feMorphology>                <feFlood flood-color="#32DFEC" flood-opacity="1" result="PINK"></feFlood>        <feComposite in="PINK" in2="DILATED" operator="in" result="OUTLINE"></feComposite>        <feMerge>            <feMergeNode in="OUTLINE"></feMergeNode>            <feMergeNode in="SourceGraphic"></feMergeNode>        </feMerge>    </filter>    <filter id="hover" height="200%">        <feMorphology in="SourceAlpha" result="DILATED" operator="dilate" radius="2"></feMorphology>                <feFlood flood-color="#ff0000" flood-opacity="0.5" result="PINK"></feFlood>        <feComposite in="PINK" in2="DILATED" operator="in" result="OUTLINE"></feComposite>        <feMerge>            <feMergeNode in="OUTLINE"></feMergeNode>            <feMergeNode in="SourceGraphic"></feMergeNode>        </feMerge>            <feColorMatrix type="matrix" values="0   0   0   0   0                0   1   0   0   0                0   0   0   0   0                0   0   0   1   0 "></feColorMatrix>    </filter></defs></svg>